<?xml version="1.0" encoding="UTF-8" standalone="no"?>
<!-- Created with Inkscape (http://www.inkscape.org/) -->

<svg
   xmlns:dc="http://purl.org/dc/elements/1.1/"
   xmlns:cc="http://creativecommons.org/ns#"
   xmlns:rdf="http://www.w3.org/1999/02/22-rdf-syntax-ns#"
   xmlns:svg="http://www.w3.org/2000/svg"
   xmlns="http://www.w3.org/2000/svg"
   xmlns:sodipodi="http://sodipodi.sourceforge.net/DTD/sodipodi-0.dtd"
   xmlns:inkscape="http://www.inkscape.org/namespaces/inkscape"
   version="1.0"
   width="750"
   height="500"
   id="svg2379"
   inkscape:version="0.47 r22583"
   sodipodi:docname="Bandera_de_Menorca.svg">
  <metadata
     id="metadata23">
    <rdf:RDF>
      <cc:Work
         rdf:about="">
        <dc:format>image/svg+xml</dc:format>
        <dc:type
           rdf:resource="http://purl.org/dc/dcmitype/StillImage" />
        <dc:title></dc:title>
      </cc:Work>
    </rdf:RDF>
  </metadata>
  <sodipodi:namedview
     pagecolor="#ffffff"
     bordercolor="#666666"
     borderopacity="1"
     objecttolerance="10"
     gridtolerance="10"
     guidetolerance="10"
     inkscape:pageopacity="0"
     inkscape:pageshadow="2"
     inkscape:window-width="1366"
     inkscape:window-height="706"
     id="namedview21"
     showgrid="false"
     inkscape:zoom="0.6675088"
     inkscape:cx="565.52937"
     inkscape:cy="270.68086"
     inkscape:window-x="-8"
     inkscape:window-y="-8"
     inkscape:window-maximized="1"
     inkscape:current-layer="svg2379" />
  <defs
     id="defs1369" />
  <path
     d=""
     id="path2491"
     style="fill:#494949;fill-opacity:1" />
  <path
     d=""
     id="path2489"
     style="fill:#333333;fill-opacity:1" />
  <path
     d="M 0,250 L 0,0 L 374.99999,0 L 749.99999,0 L 749.99999,250 L 749.99999,500 L 374.99999,500 L 0,500 L 0,250 z"
     id="path2503"
     style="fill:#fcdd09;fill-opacity:1" />
  <path
     d="M 0,416.66667 L 0,388.88889 L 374.99999,388.88889 L 749.99999,388.88889 L 749.99999,416.66667 L 749.99999,444.44445 L 374.99999,444.44445 L 0,444.44445 L 0,416.66667 z"
     id="path2415"
     style="fill:#da121a;fill-opacity:1" />
  <path
     d="M 0,305.55556 L 0,277.77778 L 374.99999,277.77778 L 749.99999,277.77778 L 749.99999,305.55556 L 749.99999,333.33334 L 374.99999,333.33334 L 0,333.33334 L 0,305.55556 z"
     id="path2413"
     style="fill:#da121a;fill-opacity:1" />
  <path
     d="M 0,194.44445 L 0,166.66666 L 374.99999,166.66666 L 749.99999,166.66666 L 749.99999,194.44445 L 749.99999,222.22223 L 374.99999,222.22223 L 0,222.22223 L 0,194.44445 z"
     id="path2411"
     style="fill:#da121a;fill-opacity:1" />
  <path
     d="M 0,83.33333 L 0,55.55555 L 374.99999,55.55555 L 749.99999,55.55555 L 749.99999,83.33333 L 749.99999,111.11111 L 374.99999,111.11111 L 0,111.11111 L 0,83.33333 z"
     id="path2499"
     style="fill:#da121a;fill-opacity:1" />
  <g
     transform="matrix(0.74073951,0,0,0.74073951,749.98445,-851.49802)"
     id="g8574">
    <rect
       style="fill:#0071bc;fill-opacity:1;stroke:#ffffff;stroke-width:28.51919556;stroke-miterlimit:4;stroke-opacity:1;stroke-dasharray:none"
       id="rect8037"
       width="404.09793"
       height="404.09793"
       x="-1611.4929"
       y="491.47781"
       transform="matrix(0.70710678,-0.70710678,0.70710678,0.70710678,0,0)" />
    <path
       style="fill:#b79c56;fill-opacity:1;stroke:none"
       d="m -512.69338,1187.0246 -293.53645,293.5367 c 120.54252,-91.7599 189.05067,-152.102 293.53645,-293.5367 z m 12.99576,0 c 104.48577,141.4347 172.92526,201.7768 293.46777,293.5367 l -293.46777,-293.5367 z m -306.53221,306.4635 293.53645,293.5369 c -104.48578,-141.4346 -172.99393,-201.777 -293.53645,-293.5369 z m 599.99998,0 c -120.54251,91.7599 -188.982,152.1023 -293.46777,293.5369 l 293.46777,-293.5369 z"
       id="path8041" />
    <g
       id="g8043"
       transform="matrix(2.1937842,0,0,2.1937842,-2434.7914,-577.65018)">
      <path
         sodipodi:nodetypes="ccccccc"
         id="path8045"
         d="m 850.72768,935.5625 c -2.34021,0.86088 -1.74461,2.93301 -0.71875,4.65625 l -15.375,68.21875 88.9375,0 -15.34375,-68.21875 c 1.02586,-1.72324 1.62146,-3.79537 -0.71875,-4.65625 -16.79733,-3.68793 -39.99957,-4.40453 -56.78125,0 z"
         style="fill:#ebc512;fill-opacity:1;stroke:none" />
      <path
         sodipodi:nodetypes="cccccc"
         id="path8047"
         d="m 879.10267,972.98773 c -2.38666,0 -4.32142,1.93967 -4.32142,4.33238 l 0,18.08168 8.64285,0 c -7e-5,-6.01878 0,-12.08932 0,-18.08168 0,-2.39271 -1.93476,-4.33238 -4.32143,-4.33238 z"
         style="fill:#b79c56;fill-opacity:1;fill-rule:evenodd;stroke:none" />
      <path
         id="path8049"
         d="m 871.77455,937.8125 c -0.71007,0 -1.28125,0.64977 -1.28125,1.46875 l 0,6.1875 2.5625,0 c -10e-6,-2.06011 0,-4.13644 0,-6.1875 0,-0.81898 -0.57117,-1.46875 -1.28125,-1.46875 z m 4.875,0 c -0.71007,0 -1.28125,0.64977 -1.28125,1.46875 l 0,6.1875 2.5625,0 c -10e-6,-2.06011 0,-4.13644 0,-6.1875 0,-0.81898 -0.57117,-1.46875 -1.28125,-1.46875 z m 4.90625,0 c -0.71007,0 -1.3125,0.64977 -1.3125,1.46875 l 0,6.1875 2.59375,0 c -10e-6,-2.06011 0,-4.13644 0,-6.1875 0,-0.81898 -0.57117,-1.46875 -1.28125,-1.46875 z m 4.875,0 c -0.71007,0 -1.28125,0.64977 -1.28125,1.46875 l 0,6.1875 2.5625,0 c -10e-6,-2.06011 0,-4.13644 0,-6.1875 0,-0.81898 -0.57117,-1.46875 -1.28125,-1.46875 z"
         style="fill:#b79c56;fill-opacity:1;fill-rule:evenodd;stroke:none" />
    </g>
    <g
       transform="translate(14.285661,0)"
       id="g8476">
      <g
         id="g8053"
         transform="matrix(2.1937842,0,0,2.1937842,-2464.4389,-577.65018)">
        <path
           style="fill:#eac102;fill-opacity:1;stroke:none"
           d="m 908.30357,915.66575 c -6.92443,-12.51657 -8.08453,-21.10592 -0.71215,-37.06455 -17.14552,9.01572 -14.56314,31.16414 0.71215,37.06455 z"
           id="path8055"
           sodipodi:nodetypes="ccc" />
        <path
           style="fill:#eac102;fill-opacity:1;stroke:none"
           d="m 914.09375,875.03125 c -30.40203,17.83248 -17.74542,37.50053 9.59375,51.125 0.91409,-0.0834 1.246,-0.65962 0.90625,-1.8125 -25.81458,-13.12923 -36.54377,-28.68635 -10.5,-49.3125 z"
           id="path8057" />
        <g
           transform="matrix(0.0499085,1.1296176,-1.0809603,0.04080466,1853.6934,-186.51227)"
           id="g8059">
          <path
             style="fill:#eac102;fill-opacity:1;stroke:none"
             d="m 909.21875,915.25 c 0.31328,0.22476 0.4152,0.46626 0.78125,0.6875 3.08649,-7.4742 -1.14343,-7.51068 -3.21875,-12.15625 -0.0374,0.11212 -0.056,0.2312 -0.0937,0.34375 0.36503,1.14755 0.67752,2.29773 0.90625,3.40625 0.28778,1.39469 0.50158,2.76145 0.75,4.09375 0.23061,1.23676 0.51499,2.44257 0.875,3.625 z"
             id="path8061" />
          <path
             style="fill:#b79c56;fill-opacity:1;stroke:none"
             d="m 909.21875,915.25 c -0.36001,-1.18243 -0.64439,-2.38824 -0.875,-3.625 -0.24842,-1.3323 -0.46222,-2.69906 -0.75,-4.09375 -0.22873,-1.10852 -0.54122,-2.2587 -0.90625,-3.40625 -1.24054,3.69952 -2.36581,7.61154 2.53125,11.125 z"
             id="path8063" />
        </g>
        <g
           id="g8065"
           transform="matrix(0.97033908,0.64032986,-0.80899421,0.71834463,765.18412,-361.33895)">
          <path
             id="path8067"
             d="m 909.21875,915.25 c 0.31328,0.22476 0.4152,0.46626 0.78125,0.6875 3.08649,-7.4742 -1.14343,-7.51068 -3.21875,-12.15625 -0.0374,0.11212 -0.056,0.2312 -0.0937,0.34375 0.36503,1.14755 0.67752,2.29773 0.90625,3.40625 0.28778,1.39469 0.50158,2.76145 0.75,4.09375 0.23061,1.23676 0.51499,2.44257 0.875,3.625 z"
             style="fill:#eac102;fill-opacity:1;stroke:none" />
          <path
             id="path8069"
             d="m 909.21875,915.25 c -0.36001,-1.18243 -0.64439,-2.38824 -0.875,-3.625 -0.24842,-1.3323 -0.46222,-2.69906 -0.75,-4.09375 -0.22873,-1.10852 -0.54122,-2.2587 -0.90625,-3.40625 -1.24054,3.69952 -2.36581,7.61154 2.53125,11.125 z"
             style="fill:#b79c56;fill-opacity:1;stroke:none" />
        </g>
        <g
           transform="matrix(1.1378628,0.2326278,-0.39530875,0.94841855,231.21588,-197.66254)"
           id="g8071">
          <path
             style="fill:#eac102;fill-opacity:1;stroke:none"
             d="m 909.21875,915.25 c 0.31328,0.22476 0.4152,0.46626 0.78125,0.6875 3.08649,-7.4742 -1.14343,-7.51068 -3.21875,-12.15625 -0.0374,0.11212 -0.056,0.2312 -0.0937,0.34375 0.36503,1.14755 0.67752,2.29773 0.90625,3.40625 0.28778,1.39469 0.50158,2.76145 0.75,4.09375 0.23061,1.23676 0.51499,2.44257 0.875,3.625 z"
             id="path8073" />
          <path
             style="fill:#b79c56;fill-opacity:1;stroke:none"
             d="m 909.21875,915.25 c -0.36001,-1.18243 -0.64439,-2.38824 -0.875,-3.625 -0.24842,-1.3323 -0.46222,-2.69906 -0.75,-4.09375 -0.22873,-1.10852 -0.54122,-2.2587 -0.90625,-3.40625 -1.24054,3.69952 -2.36581,7.61154 2.53125,11.125 z"
             id="path8075" />
        </g>
        <g
           id="g8077"
           transform="matrix(-0.01400209,1.1101987,-1.071957,-0.1995383,1898.008,54.918383)">
          <path
             id="path8079"
             d="m 909.21875,915.25 c 0.31328,0.22476 0.4152,0.46626 0.78125,0.6875 3.08649,-7.4742 -1.14343,-7.51068 -3.21875,-12.15625 -0.0374,0.11212 -0.056,0.2312 -0.0937,0.34375 0.36503,1.14755 0.67752,2.29773 0.90625,3.40625 0.28778,1.39469 0.50158,2.76145 0.75,4.09375 0.23061,1.23676 0.51499,2.44257 0.875,3.625 z"
             style="fill:#eac102;fill-opacity:1;stroke:none" />
          <path
             id="path8081"
             d="m 909.21875,915.25 c -0.36001,-1.18243 -0.64439,-2.38824 -0.875,-3.625 -0.24842,-1.3323 -0.46222,-2.69906 -0.75,-4.09375 -0.22873,-1.10852 -0.54122,-2.2587 -0.90625,-3.40625 -1.24054,3.69952 -2.36581,7.61154 2.53125,11.125 z"
             style="fill:#b79c56;fill-opacity:1;stroke:none" />
        </g>
        <g
           transform="matrix(1.228805,-0.02961286,-0.17413326,1.0789669,-57.375063,-73.271295)"
           id="g8083">
          <path
             style="fill:#eac102;fill-opacity:1;stroke:none"
             d="m 909.21875,915.25 c 0.31328,0.22476 0.4152,0.46626 0.78125,0.6875 3.08649,-7.4742 -1.14343,-7.51068 -3.21875,-12.15625 -0.0374,0.11212 -0.056,0.2312 -0.0937,0.34375 0.36503,1.14755 0.67752,2.29773 0.90625,3.40625 0.28778,1.39469 0.50158,2.76145 0.75,4.09375 0.23061,1.23676 0.51499,2.44257 0.875,3.625 z"
             id="path8085" />
          <path
             style="fill:#b79c56;fill-opacity:1;stroke:none"
             d="m 909.21875,915.25 c -0.36001,-1.18243 -0.64439,-2.38824 -0.875,-3.625 -0.24842,-1.3323 -0.46222,-2.69906 -0.75,-4.09375 -0.22873,-1.10852 -0.54122,-2.2587 -0.90625,-3.40625 -1.24054,3.69952 -2.36581,7.61154 2.53125,11.125 z"
             id="path8087" />
        </g>
        <g
           id="g8089"
           transform="matrix(0.1584547,1.2102563,-0.96673101,-0.01808648,1641.1911,-195.83481)">
          <path
             id="path8091"
             d="m 909.21875,915.25 c 0.31328,0.22476 0.4152,0.46626 0.78125,0.6875 3.08649,-7.4742 -1.14343,-7.51068 -3.21875,-12.15625 -0.0374,0.11212 -0.056,0.2312 -0.0937,0.34375 0.36503,1.14755 0.67752,2.29773 0.90625,3.40625 0.28778,1.39469 0.50158,2.76145 0.75,4.09375 0.23061,1.23676 0.51499,2.44257 0.875,3.625 z"
             style="fill:#eac102;fill-opacity:1;stroke:none" />
          <path
             id="path8093"
             d="m 909.21875,915.25 c -0.36001,-1.18243 -0.64439,-2.38824 -0.875,-3.625 -0.24842,-1.3323 -0.46222,-2.69906 -0.75,-4.09375 -0.22873,-1.10852 -0.54122,-2.2587 -0.90625,-3.40625 -1.24054,3.69952 -2.36581,7.61154 2.53125,11.125 z"
             style="fill:#b79c56;fill-opacity:1;stroke:none" />
        </g>
        <g
           transform="matrix(1.2132956,-0.15421855,-0.03822881,1.1186065,-170.16549,10.254173)"
           id="g8095">
          <path
             style="fill:#eac102;fill-opacity:1;stroke:none"
             d="m 909.21875,915.25 c 0.31328,0.22476 0.4152,0.46626 0.78125,0.6875 3.08649,-7.4742 -1.14343,-7.51068 -3.21875,-12.15625 -0.0374,0.11212 -0.056,0.2312 -0.0937,0.34375 0.36503,1.14755 0.67752,2.29773 0.90625,3.40625 0.28778,1.39469 0.50158,2.76145 0.75,4.09375 0.23061,1.23676 0.51499,2.44257 0.875,3.625 z"
             id="path8097" />
          <path
             style="fill:#b79c56;fill-opacity:1;stroke:none"
             d="m 909.21875,915.25 c -0.36001,-1.18243 -0.64439,-2.38824 -0.875,-3.625 -0.24842,-1.3323 -0.46222,-2.69906 -0.75,-4.09375 -0.22873,-1.10852 -0.54122,-2.2587 -0.90625,-3.40625 -1.24054,3.69952 -2.36581,7.61154 2.53125,11.125 z"
             id="path8099" />
        </g>
        <g
           id="g8101"
           transform="matrix(0.43238522,0.92796687,-0.93007168,0.24195843,1356.0623,-170.36944)">
          <path
             id="path8103"
             d="m 909.21875,915.25 c 0.31328,0.22476 0.4152,0.46626 0.78125,0.6875 3.08649,-7.4742 -1.14343,-7.51068 -3.21875,-12.15625 -0.0374,0.11212 -0.056,0.2312 -0.0937,0.34375 0.36503,1.14755 0.67752,2.29773 0.90625,3.40625 0.28778,1.39469 0.50158,2.76145 0.75,4.09375 0.23061,1.23676 0.51499,2.44257 0.875,3.625 z"
             style="fill:#eac102;fill-opacity:1;stroke:none" />
          <path
             id="path8105"
             d="m 909.21875,915.25 c -0.36001,-1.18243 -0.64439,-2.38824 -0.875,-3.625 -0.24842,-1.3323 -0.46222,-2.69906 -0.75,-4.09375 -0.22873,-1.10852 -0.54122,-2.2587 -0.90625,-3.40625 -1.24054,3.69952 -2.36581,7.61154 2.53125,11.125 z"
             style="fill:#b79c56;fill-opacity:1;stroke:none" />
        </g>
        <g
           transform="matrix(1.218728,-0.4046156,0.16704287,1.1938261,-363.89722,176.87311)"
           id="g8107">
          <path
             style="fill:#eac102;fill-opacity:1;stroke:none"
             d="m 909.21875,915.25 c 0.31328,0.22476 0.4152,0.46626 0.78125,0.6875 3.08649,-7.4742 -1.14343,-7.51068 -3.21875,-12.15625 -0.0374,0.11212 -0.056,0.2312 -0.0937,0.34375 0.36503,1.14755 0.67752,2.29773 0.90625,3.40625 0.28778,1.39469 0.50158,2.76145 0.75,4.09375 0.23061,1.23676 0.51499,2.44257 0.875,3.625 z"
             id="path8109" />
          <path
             style="fill:#b79c56;fill-opacity:1;stroke:none"
             d="m 909.21875,915.25 c -0.36001,-1.18243 -0.64439,-2.38824 -0.875,-3.625 -0.24842,-1.3323 -0.46222,-2.69906 -0.75,-4.09375 -0.22873,-1.10852 -0.54122,-2.2587 -0.90625,-3.40625 -1.24054,3.69952 -2.36581,7.61154 2.53125,11.125 z"
             id="path8111" />
        </g>
        <g
           id="g8113"
           transform="matrix(0.64125908,0.80570821,-0.7379191,0.56342755,990.52838,-345.89861)">
          <path
             id="path8115"
             d="m 909.21875,915.25 c 0.31328,0.22476 0.4152,0.46626 0.78125,0.6875 3.08649,-7.4742 -1.14343,-7.51068 -3.21875,-12.15625 -0.0374,0.11212 -0.056,0.2312 -0.0937,0.34375 0.36503,1.14755 0.67752,2.29773 0.90625,3.40625 0.28778,1.39469 0.50158,2.76145 0.75,4.09375 0.23061,1.23676 0.51499,2.44257 0.875,3.625 z"
             style="fill:#eac102;fill-opacity:1;stroke:none" />
          <path
             id="path8117"
             d="m 909.21875,915.25 c -0.36001,-1.18243 -0.64439,-2.38824 -0.875,-3.625 -0.24842,-1.3323 -0.46222,-2.69906 -0.75,-4.09375 -0.22873,-1.10852 -0.54122,-2.2587 -0.90625,-3.40625 -1.24054,3.69952 -2.36581,7.61154 2.53125,11.125 z"
             style="fill:#b79c56;fill-opacity:1;stroke:none" />
        </g>
        <g
           transform="matrix(-0.41315175,1.1913984,1.0814505,0.35080839,286.7058,-497.23636)"
           id="g8119">
          <path
             style="fill:#b79c56;fill-opacity:1;stroke:none"
             d="m 909.21875,915.25 c 0.31328,0.22476 0.4152,0.46626 0.78125,0.6875 3.08649,-7.4742 -1.14343,-7.51068 -3.21875,-12.15625 -0.0374,0.11212 -0.056,0.2312 -0.0937,0.34375 0.36503,1.14755 0.67752,2.29773 0.90625,3.40625 0.28778,1.39469 0.50158,2.76145 0.75,4.09375 0.23061,1.23676 0.51499,2.44257 0.875,3.625 z"
             id="path8121" />
          <path
             style="fill:#eac102;fill-opacity:1;stroke:none"
             d="m 909.21875,915.25 c -0.36001,-1.18243 -0.64439,-2.38824 -0.875,-3.625 -0.24842,-1.3323 -0.46222,-2.69906 -0.75,-4.09375 -0.22873,-1.10852 -0.54122,-2.2587 -0.90625,-3.40625 -1.24054,3.69952 -2.36581,7.61154 2.53125,11.125 z"
             id="path8123" />
        </g>
        <g
           transform="matrix(1.1591342,0.47065293,-0.46943519,0.90922685,278.49243,-350.26801)"
           id="g8125">
          <path
             style="fill:#eac102;fill-opacity:1;stroke:none"
             d="m 909.21875,915.25 c 0.31328,0.22476 0.4152,0.46626 0.78125,0.6875 3.08649,-7.4742 -1.14343,-7.51068 -3.21875,-12.15625 -0.0374,0.11212 -0.056,0.2312 -0.0937,0.34375 0.36503,1.14755 0.67752,2.29773 0.90625,3.40625 0.28778,1.39469 0.50158,2.76145 0.75,4.09375 0.23061,1.23676 0.51499,2.44257 0.875,3.625 z"
             id="path8127" />
          <path
             style="fill:#b79c56;fill-opacity:1;stroke:none"
             d="m 909.21875,915.25 c -0.36001,-1.18243 -0.64439,-2.38824 -0.875,-3.625 -0.24842,-1.3323 -0.46222,-2.69906 -0.75,-4.09375 -0.22873,-1.10852 -0.54122,-2.2587 -0.90625,-3.40625 -1.24054,3.69952 -2.36581,7.61154 2.53125,11.125 z"
             id="path8129" />
        </g>
        <g
           id="g8131"
           transform="matrix(0.03271914,1.4099004,1.1357199,-0.05856824,-164.32242,-317.02965)">
          <path
             id="path8133"
             d="m 909.21875,915.25 c 0.31328,0.22476 0.4152,0.46626 0.78125,0.6875 3.08649,-7.4742 -1.14343,-7.51068 -3.21875,-12.15625 -0.0374,0.11212 -0.056,0.2312 -0.0937,0.34375 0.36503,1.14755 0.67752,2.29773 0.90625,3.40625 0.28778,1.39469 0.50158,2.76145 0.75,4.09375 0.23061,1.23676 0.51499,2.44257 0.875,3.625 z"
             style="fill:#b79c56;fill-opacity:1;stroke:none" />
          <path
             id="path8135"
             d="m 909.21875,915.25 c -0.36001,-1.18243 -0.64439,-2.38824 -0.875,-3.625 -0.24842,-1.3323 -0.46222,-2.69906 -0.75,-4.09375 -0.22873,-1.10852 -0.54122,-2.2587 -0.90625,-3.40625 -1.24054,3.69952 -2.36581,7.61154 2.53125,11.125 z"
             style="fill:#eac102;fill-opacity:1;stroke:none" />
        </g>
        <g
           transform="matrix(0.45417027,1.1573667,0.99862785,-0.36491033,-417.80777,196.68336)"
           id="g8137">
          <path
             style="fill:#b79c56;fill-opacity:1;stroke:none"
             d="m 909.21875,915.25 c 0.31328,0.22476 0.4152,0.46626 0.78125,0.6875 3.08649,-7.4742 -1.14343,-7.51068 -3.21875,-12.15625 -0.0374,0.11212 -0.056,0.2312 -0.0937,0.34375 0.36503,1.14755 0.67752,2.29773 0.90625,3.40625 0.28778,1.39469 0.50158,2.76145 0.75,4.09375 0.23061,1.23676 0.51499,2.44257 0.875,3.625 z"
             id="path8139" />
          <path
             style="fill:#eac102;fill-opacity:1;stroke:none"
             d="m 909.21875,915.25 c -0.36001,-1.18243 -0.64439,-2.38824 -0.875,-3.625 -0.24842,-1.3323 -0.46222,-2.69906 -0.75,-4.09375 -0.22873,-1.10852 -0.54122,-2.2587 -0.90625,-3.40625 -1.24054,3.69952 -2.36581,7.61154 2.53125,11.125 z"
             id="path8141" />
        </g>
        <g
           id="g8143"
           transform="matrix(1.290222,0.14653143,-0.14917202,0.99156509,-127.53273,-125.1602)">
          <path
             id="path8145"
             d="m 909.21875,915.25 c 0.31328,0.22476 0.4152,0.46626 0.78125,0.6875 3.08649,-7.4742 -1.14343,-7.51068 -3.21875,-12.15625 -0.0374,0.11212 -0.056,0.2312 -0.0937,0.34375 0.36503,1.14755 0.67752,2.29773 0.90625,3.40625 0.28778,1.39469 0.50158,2.76145 0.75,4.09375 0.23061,1.23676 0.51499,2.44257 0.875,3.625 z"
             style="fill:#eac102;fill-opacity:1;stroke:none" />
          <path
             id="path8147"
             d="m 909.21875,915.25 c -0.36001,-1.18243 -0.64439,-2.38824 -0.875,-3.625 -0.24842,-1.3323 -0.46222,-2.69906 -0.75,-4.09375 -0.22873,-1.10852 -0.54122,-2.2587 -0.90625,-3.40625 -1.24054,3.69952 -2.36581,7.61154 2.53125,11.125 z"
             style="fill:#b79c56;fill-opacity:1;stroke:none" />
        </g>
      </g>
      <g
         transform="matrix(-2.1937842,0,0,2.1937842,1423.4078,-577.65018)"
         id="g8149">
        <path
           sodipodi:nodetypes="ccc"
           id="path8151"
           d="m 908.30357,915.66575 c -6.92443,-12.51657 -8.08453,-21.10592 -0.71215,-37.06455 -17.14552,9.01572 -14.56314,31.16414 0.71215,37.06455 z"
           style="fill:#eac102;fill-opacity:1;stroke:none" />
        <path
           id="path8153"
           d="m 914.09375,875.03125 c -30.40203,17.83248 -17.74542,37.50053 9.59375,51.125 0.91409,-0.0834 1.246,-0.65962 0.90625,-1.8125 -25.81458,-13.12923 -36.54377,-28.68635 -10.5,-49.3125 z"
           style="fill:#eac102;fill-opacity:1;stroke:none" />
        <g
           id="g8155"
           transform="matrix(0.0499085,1.1296176,-1.0809603,0.04080466,1853.6934,-186.51227)">
          <path
             id="path8157"
             d="m 909.21875,915.25 c 0.31328,0.22476 0.4152,0.46626 0.78125,0.6875 3.08649,-7.4742 -1.14343,-7.51068 -3.21875,-12.15625 -0.0374,0.11212 -0.056,0.2312 -0.0937,0.34375 0.36503,1.14755 0.67752,2.29773 0.90625,3.40625 0.28778,1.39469 0.50158,2.76145 0.75,4.09375 0.23061,1.23676 0.51499,2.44257 0.875,3.625 z"
             style="fill:#eac102;fill-opacity:1;stroke:none" />
          <path
             id="path8159"
             d="m 909.21875,915.25 c -0.36001,-1.18243 -0.64439,-2.38824 -0.875,-3.625 -0.24842,-1.3323 -0.46222,-2.69906 -0.75,-4.09375 -0.22873,-1.10852 -0.54122,-2.2587 -0.90625,-3.40625 -1.24054,3.69952 -2.36581,7.61154 2.53125,11.125 z"
             style="fill:#b79c56;fill-opacity:1;stroke:none" />
        </g>
        <g
           transform="matrix(0.97033908,0.64032986,-0.80899421,0.71834463,765.18412,-361.33895)"
           id="g8161">
          <path
             style="fill:#eac102;fill-opacity:1;stroke:none"
             d="m 909.21875,915.25 c 0.31328,0.22476 0.4152,0.46626 0.78125,0.6875 3.08649,-7.4742 -1.14343,-7.51068 -3.21875,-12.15625 -0.0374,0.11212 -0.056,0.2312 -0.0937,0.34375 0.36503,1.14755 0.67752,2.29773 0.90625,3.40625 0.28778,1.39469 0.50158,2.76145 0.75,4.09375 0.23061,1.23676 0.51499,2.44257 0.875,3.625 z"
             id="path8163" />
          <path
             style="fill:#b79c56;fill-opacity:1;stroke:none"
             d="m 909.21875,915.25 c -0.36001,-1.18243 -0.64439,-2.38824 -0.875,-3.625 -0.24842,-1.3323 -0.46222,-2.69906 -0.75,-4.09375 -0.22873,-1.10852 -0.54122,-2.2587 -0.90625,-3.40625 -1.24054,3.69952 -2.36581,7.61154 2.53125,11.125 z"
             id="path8165" />
        </g>
        <g
           id="g8167"
           transform="matrix(1.1378628,0.2326278,-0.39530875,0.94841855,231.21588,-197.66254)">
          <path
             id="path8169"
             d="m 909.21875,915.25 c 0.31328,0.22476 0.4152,0.46626 0.78125,0.6875 3.08649,-7.4742 -1.14343,-7.51068 -3.21875,-12.15625 -0.0374,0.11212 -0.056,0.2312 -0.0937,0.34375 0.36503,1.14755 0.67752,2.29773 0.90625,3.40625 0.28778,1.39469 0.50158,2.76145 0.75,4.09375 0.23061,1.23676 0.51499,2.44257 0.875,3.625 z"
             style="fill:#eac102;fill-opacity:1;stroke:none" />
          <path
             id="path8171"
             d="m 909.21875,915.25 c -0.36001,-1.18243 -0.64439,-2.38824 -0.875,-3.625 -0.24842,-1.3323 -0.46222,-2.69906 -0.75,-4.09375 -0.22873,-1.10852 -0.54122,-2.2587 -0.90625,-3.40625 -1.24054,3.69952 -2.36581,7.61154 2.53125,11.125 z"
             style="fill:#b79c56;fill-opacity:1;stroke:none" />
        </g>
        <g
           transform="matrix(-0.01400209,1.1101987,-1.071957,-0.1995383,1898.008,54.918383)"
           id="g8173">
          <path
             style="fill:#eac102;fill-opacity:1;stroke:none"
             d="m 909.21875,915.25 c 0.31328,0.22476 0.4152,0.46626 0.78125,0.6875 3.08649,-7.4742 -1.14343,-7.51068 -3.21875,-12.15625 -0.0374,0.11212 -0.056,0.2312 -0.0937,0.34375 0.36503,1.14755 0.67752,2.29773 0.90625,3.40625 0.28778,1.39469 0.50158,2.76145 0.75,4.09375 0.23061,1.23676 0.51499,2.44257 0.875,3.625 z"
             id="path8175" />
          <path
             style="fill:#b79c56;fill-opacity:1;stroke:none"
             d="m 909.21875,915.25 c -0.36001,-1.18243 -0.64439,-2.38824 -0.875,-3.625 -0.24842,-1.3323 -0.46222,-2.69906 -0.75,-4.09375 -0.22873,-1.10852 -0.54122,-2.2587 -0.90625,-3.40625 -1.24054,3.69952 -2.36581,7.61154 2.53125,11.125 z"
             id="path8177" />
        </g>
        <g
           id="g8179"
           transform="matrix(1.228805,-0.02961286,-0.17413326,1.0789669,-57.375063,-73.271295)">
          <path
             id="path8181"
             d="m 909.21875,915.25 c 0.31328,0.22476 0.4152,0.46626 0.78125,0.6875 3.08649,-7.4742 -1.14343,-7.51068 -3.21875,-12.15625 -0.0374,0.11212 -0.056,0.2312 -0.0937,0.34375 0.36503,1.14755 0.67752,2.29773 0.90625,3.40625 0.28778,1.39469 0.50158,2.76145 0.75,4.09375 0.23061,1.23676 0.51499,2.44257 0.875,3.625 z"
             style="fill:#eac102;fill-opacity:1;stroke:none" />
          <path
             id="path8183"
             d="m 909.21875,915.25 c -0.36001,-1.18243 -0.64439,-2.38824 -0.875,-3.625 -0.24842,-1.3323 -0.46222,-2.69906 -0.75,-4.09375 -0.22873,-1.10852 -0.54122,-2.2587 -0.90625,-3.40625 -1.24054,3.69952 -2.36581,7.61154 2.53125,11.125 z"
             style="fill:#b79c56;fill-opacity:1;stroke:none" />
        </g>
        <g
           transform="matrix(0.1584547,1.2102563,-0.96673101,-0.01808648,1641.1911,-195.83481)"
           id="g8185">
          <path
             style="fill:#eac102;fill-opacity:1;stroke:none"
             d="m 909.21875,915.25 c 0.31328,0.22476 0.4152,0.46626 0.78125,0.6875 3.08649,-7.4742 -1.14343,-7.51068 -3.21875,-12.15625 -0.0374,0.11212 -0.056,0.2312 -0.0937,0.34375 0.36503,1.14755 0.67752,2.29773 0.90625,3.40625 0.28778,1.39469 0.50158,2.76145 0.75,4.09375 0.23061,1.23676 0.51499,2.44257 0.875,3.625 z"
             id="path8187" />
          <path
             style="fill:#b79c56;fill-opacity:1;stroke:none"
             d="m 909.21875,915.25 c -0.36001,-1.18243 -0.64439,-2.38824 -0.875,-3.625 -0.24842,-1.3323 -0.46222,-2.69906 -0.75,-4.09375 -0.22873,-1.10852 -0.54122,-2.2587 -0.90625,-3.40625 -1.24054,3.69952 -2.36581,7.61154 2.53125,11.125 z"
             id="path8189" />
        </g>
        <g
           id="g8191"
           transform="matrix(1.2132956,-0.15421855,-0.03822881,1.1186065,-170.16549,10.254173)">
          <path
             id="path8193"
             d="m 909.21875,915.25 c 0.31328,0.22476 0.4152,0.46626 0.78125,0.6875 3.08649,-7.4742 -1.14343,-7.51068 -3.21875,-12.15625 -0.0374,0.11212 -0.056,0.2312 -0.0937,0.34375 0.36503,1.14755 0.67752,2.29773 0.90625,3.40625 0.28778,1.39469 0.50158,2.76145 0.75,4.09375 0.23061,1.23676 0.51499,2.44257 0.875,3.625 z"
             style="fill:#eac102;fill-opacity:1;stroke:none" />
          <path
             id="path8195"
             d="m 909.21875,915.25 c -0.36001,-1.18243 -0.64439,-2.38824 -0.875,-3.625 -0.24842,-1.3323 -0.46222,-2.69906 -0.75,-4.09375 -0.22873,-1.10852 -0.54122,-2.2587 -0.90625,-3.40625 -1.24054,3.69952 -2.36581,7.61154 2.53125,11.125 z"
             style="fill:#b79c56;fill-opacity:1;stroke:none" />
        </g>
        <g
           transform="matrix(0.43238522,0.92796687,-0.93007168,0.24195843,1356.0623,-170.36944)"
           id="g8197">
          <path
             style="fill:#eac102;fill-opacity:1;stroke:none"
             d="m 909.21875,915.25 c 0.31328,0.22476 0.4152,0.46626 0.78125,0.6875 3.08649,-7.4742 -1.14343,-7.51068 -3.21875,-12.15625 -0.0374,0.11212 -0.056,0.2312 -0.0937,0.34375 0.36503,1.14755 0.67752,2.29773 0.90625,3.40625 0.28778,1.39469 0.50158,2.76145 0.75,4.09375 0.23061,1.23676 0.51499,2.44257 0.875,3.625 z"
             id="path8199" />
          <path
             style="fill:#b79c56;fill-opacity:1;stroke:none"
             d="m 909.21875,915.25 c -0.36001,-1.18243 -0.64439,-2.38824 -0.875,-3.625 -0.24842,-1.3323 -0.46222,-2.69906 -0.75,-4.09375 -0.22873,-1.10852 -0.54122,-2.2587 -0.90625,-3.40625 -1.24054,3.69952 -2.36581,7.61154 2.53125,11.125 z"
             id="path8201" />
        </g>
        <g
           id="g8203"
           transform="matrix(1.218728,-0.4046156,0.16704287,1.1938261,-363.89722,176.87311)">
          <path
             id="path8205"
             d="m 909.21875,915.25 c 0.31328,0.22476 0.4152,0.46626 0.78125,0.6875 3.08649,-7.4742 -1.14343,-7.51068 -3.21875,-12.15625 -0.0374,0.11212 -0.056,0.2312 -0.0937,0.34375 0.36503,1.14755 0.67752,2.29773 0.90625,3.40625 0.28778,1.39469 0.50158,2.76145 0.75,4.09375 0.23061,1.23676 0.51499,2.44257 0.875,3.625 z"
             style="fill:#eac102;fill-opacity:1;stroke:none" />
          <path
             id="path8207"
             d="m 909.21875,915.25 c -0.36001,-1.18243 -0.64439,-2.38824 -0.875,-3.625 -0.24842,-1.3323 -0.46222,-2.69906 -0.75,-4.09375 -0.22873,-1.10852 -0.54122,-2.2587 -0.90625,-3.40625 -1.24054,3.69952 -2.36581,7.61154 2.53125,11.125 z"
             style="fill:#b79c56;fill-opacity:1;stroke:none" />
        </g>
        <g
           transform="matrix(0.64125908,0.80570821,-0.7379191,0.56342755,990.52838,-345.89861)"
           id="g8209">
          <path
             style="fill:#eac102;fill-opacity:1;stroke:none"
             d="m 909.21875,915.25 c 0.31328,0.22476 0.4152,0.46626 0.78125,0.6875 3.08649,-7.4742 -1.14343,-7.51068 -3.21875,-12.15625 -0.0374,0.11212 -0.056,0.2312 -0.0937,0.34375 0.36503,1.14755 0.67752,2.29773 0.90625,3.40625 0.28778,1.39469 0.50158,2.76145 0.75,4.09375 0.23061,1.23676 0.51499,2.44257 0.875,3.625 z"
             id="path8211" />
          <path
             style="fill:#b79c56;fill-opacity:1;stroke:none"
             d="m 909.21875,915.25 c -0.36001,-1.18243 -0.64439,-2.38824 -0.875,-3.625 -0.24842,-1.3323 -0.46222,-2.69906 -0.75,-4.09375 -0.22873,-1.10852 -0.54122,-2.2587 -0.90625,-3.40625 -1.24054,3.69952 -2.36581,7.61154 2.53125,11.125 z"
             id="path8213" />
        </g>
        <g
           id="g8215"
           transform="matrix(-0.41315175,1.1913984,1.0814505,0.35080839,286.7058,-497.23636)">
          <path
             id="path8217"
             d="m 909.21875,915.25 c 0.31328,0.22476 0.4152,0.46626 0.78125,0.6875 3.08649,-7.4742 -1.14343,-7.51068 -3.21875,-12.15625 -0.0374,0.11212 -0.056,0.2312 -0.0937,0.34375 0.36503,1.14755 0.67752,2.29773 0.90625,3.40625 0.28778,1.39469 0.50158,2.76145 0.75,4.09375 0.23061,1.23676 0.51499,2.44257 0.875,3.625 z"
             style="fill:#b79c56;fill-opacity:1;stroke:none" />
          <path
             id="path8219"
             d="m 909.21875,915.25 c -0.36001,-1.18243 -0.64439,-2.38824 -0.875,-3.625 -0.24842,-1.3323 -0.46222,-2.69906 -0.75,-4.09375 -0.22873,-1.10852 -0.54122,-2.2587 -0.90625,-3.40625 -1.24054,3.69952 -2.36581,7.61154 2.53125,11.125 z"
             style="fill:#eac102;fill-opacity:1;stroke:none" />
        </g>
        <g
           id="g8221"
           transform="matrix(1.1591342,0.47065293,-0.46943519,0.90922685,278.49243,-350.26801)">
          <path
             id="path8223"
             d="m 909.21875,915.25 c 0.31328,0.22476 0.4152,0.46626 0.78125,0.6875 3.08649,-7.4742 -1.14343,-7.51068 -3.21875,-12.15625 -0.0374,0.11212 -0.056,0.2312 -0.0937,0.34375 0.36503,1.14755 0.67752,2.29773 0.90625,3.40625 0.28778,1.39469 0.50158,2.76145 0.75,4.09375 0.23061,1.23676 0.51499,2.44257 0.875,3.625 z"
             style="fill:#eac102;fill-opacity:1;stroke:none" />
          <path
             id="path8225"
             d="m 909.21875,915.25 c -0.36001,-1.18243 -0.64439,-2.38824 -0.875,-3.625 -0.24842,-1.3323 -0.46222,-2.69906 -0.75,-4.09375 -0.22873,-1.10852 -0.54122,-2.2587 -0.90625,-3.40625 -1.24054,3.69952 -2.36581,7.61154 2.53125,11.125 z"
             style="fill:#b79c56;fill-opacity:1;stroke:none" />
        </g>
        <g
           transform="matrix(0.03271914,1.4099004,1.1357199,-0.05856824,-164.32242,-317.02965)"
           id="g8227">
          <path
             style="fill:#b79c56;fill-opacity:1;stroke:none"
             d="m 909.21875,915.25 c 0.31328,0.22476 0.4152,0.46626 0.78125,0.6875 3.08649,-7.4742 -1.14343,-7.51068 -3.21875,-12.15625 -0.0374,0.11212 -0.056,0.2312 -0.0937,0.34375 0.36503,1.14755 0.67752,2.29773 0.90625,3.40625 0.28778,1.39469 0.50158,2.76145 0.75,4.09375 0.23061,1.23676 0.51499,2.44257 0.875,3.625 z"
             id="path8229" />
          <path
             style="fill:#eac102;fill-opacity:1;stroke:none"
             d="m 909.21875,915.25 c -0.36001,-1.18243 -0.64439,-2.38824 -0.875,-3.625 -0.24842,-1.3323 -0.46222,-2.69906 -0.75,-4.09375 -0.22873,-1.10852 -0.54122,-2.2587 -0.90625,-3.40625 -1.24054,3.69952 -2.36581,7.61154 2.53125,11.125 z"
             id="path8231" />
        </g>
        <g
           id="g8233"
           transform="matrix(0.45417027,1.1573667,0.99862785,-0.36491033,-417.80777,196.68336)">
          <path
             id="path8235"
             d="m 909.21875,915.25 c 0.31328,0.22476 0.4152,0.46626 0.78125,0.6875 3.08649,-7.4742 -1.14343,-7.51068 -3.21875,-12.15625 -0.0374,0.11212 -0.056,0.2312 -0.0937,0.34375 0.36503,1.14755 0.67752,2.29773 0.90625,3.40625 0.28778,1.39469 0.50158,2.76145 0.75,4.09375 0.23061,1.23676 0.51499,2.44257 0.875,3.625 z"
             style="fill:#b79c56;fill-opacity:1;stroke:none" />
          <path
             id="path8237"
             d="m 909.21875,915.25 c -0.36001,-1.18243 -0.64439,-2.38824 -0.875,-3.625 -0.24842,-1.3323 -0.46222,-2.69906 -0.75,-4.09375 -0.22873,-1.10852 -0.54122,-2.2587 -0.90625,-3.40625 -1.24054,3.69952 -2.36581,7.61154 2.53125,11.125 z"
             style="fill:#eac102;fill-opacity:1;stroke:none" />
        </g>
        <g
           transform="matrix(1.290222,0.14653143,-0.14917202,0.99156509,-127.53273,-125.1602)"
           id="g8239">
          <path
             style="fill:#eac102;fill-opacity:1;stroke:none"
             d="m 909.21875,915.25 c 0.31328,0.22476 0.4152,0.46626 0.78125,0.6875 3.08649,-7.4742 -1.14343,-7.51068 -3.21875,-12.15625 -0.0374,0.11212 -0.056,0.2312 -0.0937,0.34375 0.36503,1.14755 0.67752,2.29773 0.90625,3.40625 0.28778,1.39469 0.50158,2.76145 0.75,4.09375 0.23061,1.23676 0.51499,2.44257 0.875,3.625 z"
             id="path8241" />
          <path
             style="fill:#b79c56;fill-opacity:1;stroke:none"
             d="m 909.21875,915.25 c -0.36001,-1.18243 -0.64439,-2.38824 -0.875,-3.625 -0.24842,-1.3323 -0.46222,-2.69906 -0.75,-4.09375 -0.22873,-1.10852 -0.54122,-2.2587 -0.90625,-3.40625 -1.24054,3.69952 -2.36581,7.61154 2.53125,11.125 z"
             id="path8243" />
        </g>
      </g>
    </g>
    <path
       style="font-size:medium;font-style:normal;font-variant:normal;font-weight:normal;font-stretch:normal;text-indent:0;text-align:start;text-decoration:none;line-height:normal;letter-spacing:normal;word-spacing:normal;text-transform:none;direction:ltr;block-progression:tb;writing-mode:lr-tb;text-anchor:start;color:#000000;fill:#ffffff;fill-opacity:1;stroke:none;stroke-width:8.5;marker:none;visibility:visible;display:inline;overflow:visible;enable-background:accumulate;font-family:Bitstream Vera Sans;-inkscape-font-specification:Bitstream Vera Sans"
       d="m -628.67042,1620.4531 c -5.77228,0 -10.62011,1.0171 -15.08226,2.2623 l 16.86449,16.5905 c 5.41668,0.2913 10.02604,1.662 15.63072,3.6335 6.24416,2.1958 13.87722,4.936 23.58318,4.936 9.70705,0 17.34032,-2.7402 23.58318,-4.936 6.24416,-2.1959 11.11853,-3.8391 17.41338,-3.8391 6.29353,0 11.1012,1.6432 17.34449,3.8391 6.2433,2.1958 13.87679,4.936 23.58318,4.936 9.7064,0 17.33989,-2.7402 23.58318,-4.936 6.2433,-2.1959 11.11876,-3.8391 17.41317,-3.8391 6.29418,0 11.16987,1.6432 17.41316,3.8391 6.24329,2.1958 13.87678,4.936 23.58318,4.936 9.7064,0 17.33989,-2.7402 23.58318,-4.936 5.58077,-1.9632 10.12015,-3.3328 15.4936,-3.6335 l 15.9736,-16.8648 c -4.23071,-1.1072 -8.85499,-1.988 -14.1227,-1.988 -9.70596,0 -17.27123,2.7401 -23.51452,4.9361 -6.24329,2.1957 -11.11876,3.8391 -17.41316,3.8391 -6.29419,0 -11.16987,-1.6434 -17.41316,-3.8391 -6.24329,-2.196 -13.87678,-4.9361 -23.58318,-4.9361 -9.7064,0 -17.33989,2.7401 -23.58318,4.9361 -6.24329,2.1957 -11.11876,3.8391 -17.41317,3.8391 -6.2944,0 -11.10186,-1.6434 -17.34449,-3.8391 -6.24417,-2.196 -13.87722,-4.9361 -23.58318,-4.9361 -9.70706,0 -17.34033,2.7401 -23.58318,4.9361 -6.24417,2.1957 -11.11854,3.8391 -17.41338,3.8391 -6.29353,0 -11.17009,-1.6434 -17.41295,-3.8391 -6.24416,-2.196 -13.87722,-4.9361 -23.58318,-4.9361 z m 81.99269,33.6608 c -9.70706,0 -17.34033,2.7403 -23.58318,4.936 -6.24417,2.1958 -11.11854,3.9078 -17.41338,3.9078 -6.29353,0 -11.17009,-1.712 -17.41295,-3.9078 -0.77616,-0.2729 -1.78508,-0.5392 -2.60533,-0.8226 l 23.30895,22.966 c 8.04132,-0.5563 14.83393,-2.6049 20.29251,-4.5244 6.24416,-2.1965 11.11853,-3.9078 17.41338,-3.9078 6.29353,0 11.1012,1.7111 17.34449,3.9078 6.2433,2.1957 13.87679,4.936 23.58318,4.936 9.7064,0 17.33989,-2.7403 23.58318,-4.936 6.2433,-2.1965 11.11876,-3.9078 17.41317,-3.9078 6.29418,0 11.16987,1.7111 17.41316,3.9078 6.09653,2.1437 13.58259,4.7431 22.96629,4.8673 l 22.41762,-23.8574 c -1.42837,0.4767 -3.08227,0.912 -4.38757,1.3711 -6.24329,2.1958 -11.11876,3.9078 -17.41316,3.9078 -6.29419,0 -11.16987,-1.712 -17.41316,-3.9078 -6.24329,-2.196 -13.87678,-4.936 -23.58318,-4.936 -9.7064,0 -17.33989,2.7403 -23.58318,4.936 -6.24329,2.1958 -11.11876,3.9078 -17.41317,3.9078 -6.2944,0 -11.10186,-1.712 -17.34449,-3.9078 -6.24417,-2.196 -13.87722,-4.936 -23.58318,-4.936 z m 0,35.3061 c -9.70706,0 -17.34033,2.7403 -23.58318,4.936 -0.22267,0.079 -0.39795,0.1295 -0.61711,0.2062 l 15.0136,14.7396 c 2.93901,-0.7542 5.86705,-1.2342 9.18669,-1.2342 6.29353,0 11.1012,1.6434 17.34449,3.8391 6.2433,2.1965 13.87679,4.9361 23.58318,4.9361 9.7064,0 17.33989,-2.7396 23.58318,-4.9361 6.2433,-2.1957 11.11876,-3.8391 17.41317,-3.8391 4.70939,0 8.7374,1.0851 13.02559,2.468 l 14.19115,-15.0136 c -1.21119,-0.4008 -2.3287,-0.7062 -3.63356,-1.1655 -6.24329,-2.1958 -13.87678,-4.936 -23.58318,-4.936 -9.7064,0 -17.33989,2.7402 -23.58318,4.936 -6.24329,2.1964 -11.11876,3.8391 -17.41317,3.8391 -6.2944,0 -11.10186,-1.6427 -17.34449,-3.8391 -6.24417,-2.1958 -13.87722,-4.936 -23.58318,-4.936 z"
       id="path8259" />
  </g>
</svg>
