<?xml version="1.0" encoding="UTF-8" standalone="no"?>
<!-- Created with Inkscape (http://www.inkscape.org/) -->
<svg
   xmlns:svg="http://www.w3.org/2000/svg"
   xmlns="http://www.w3.org/2000/svg"
   version="1.0"
   width="750"
   height="500"
   id="svg2379">
  <defs
     id="defs1369" />
  <path
     d=""
     id="path2491"
     style="fill:#494949;fill-opacity:1" />
  <path
     d=""
     id="path2489"
     style="fill:#333333;fill-opacity:1" />
  <path
     d="M 0,250 L 0,0 L 374.99999,0 L 749.99999,0 L 749.99999,250 L 749.99999,500 L 374.99999,500 L 0,500 L 0,250 z"
     id="path2503"
     style="fill:#fcdd09;fill-opacity:1" />
  <path
     d="M 0,416.66667 L 0,388.88889 L 374.99999,388.88889 L 749.99999,388.88889 L 749.99999,416.66667 L 749.99999,444.44445 L 374.99999,444.44445 L 0,444.44445 L 0,416.66667 z"
     id="path2415"
     style="fill:#da121a;fill-opacity:1" />
  <path
     d="M 0,305.55556 L 0,277.77778 L 374.99999,277.77778 L 749.99999,277.77778 L 749.99999,305.55556 L 749.99999,333.33334 L 374.99999,333.33334 L 0,333.33334 L 0,305.55556 z"
     id="path2413"
     style="fill:#da121a;fill-opacity:1" />
  <path
     d="M 0,194.44445 L 0,166.66666 L 374.99999,166.66666 L 749.99999,166.66666 L 749.99999,194.44445 L 749.99999,222.22223 L 374.99999,222.22223 L 0,222.22223 L 0,194.44445 z"
     id="path2411"
     style="fill:#da121a;fill-opacity:1" />
  <path
     d="M 0,83.33333 L 0,55.55555 L 374.99999,55.55555 L 749.99999,55.55555 L 749.99999,83.33333 L 749.99999,111.11111 L 374.99999,111.11111 L 0,111.11111 L 0,83.33333 z"
     id="path2499"
     style="fill:#da121a;fill-opacity:1" />
  <g
     transform="matrix(1.0788179,0,0,1.0883432,792.10817,206.35553)"
     id="g3324">
    <path
       d="M -603.15837,82.231852 C -580.17649,85.789674 -550.28217,112.26728 -542.79058,141.59807 C -521.2738,127.85559 -480.6074,127.54045 -458.73069,141.59807 C -450.98007,111.03226 -421.3235,85.688344 -398.36291,82.231852 C -414.18431,64.766839 -413.49167,15.503202 -398.36291,-1.8280339 C -424.03038,-4.4443147 -456.84288,-40.093371 -458.73069,-61.394568 C -478.64011,-46.870688 -525.21515,-47.233097 -542.79058,-61.394568 C -546.76778,-38.617659 -576.58973,-5.715045 -603.15837,-1.8280339 C -587.85422,18.577153 -588.1793,62.257475 -603.15837,82.231852 z"
       id="path1883"
       style="fill:#4d87ca;fill-opacity:1;fill-rule:evenodd;stroke:#000000;stroke-width:1.20322108;stroke-linecap:butt;stroke-linejoin:miter;stroke-opacity:1" />
    <rect
       width="31.94875"
       height="32.055378"
       x="-341.87814"
       y="304.55435"
       transform="matrix(0.7071068,0.7071068,-0.7071068,0.7071068,0,0)"
       id="rect2821"
       style="fill:#fcdd09;fill-opacity:1;stroke:#000000;stroke-width:0.90241665;stroke-opacity:1" />
    <path
       d="M -454.84195,-24.1361 L -454.84195,16.53555 L -450.11576,11.809368 L -450.11576,-19.409917 L -454.84195,-24.1361 z M -459.52739,-23.952756 L -464.25357,-19.226574 L -464.25357,11.788997 L -459.52739,16.515179 L -459.52739,-23.952756 z M -445.43033,-14.734664 L -445.43033,7.1239289 L -440.70414,2.3977467 L -440.70414,-10.008482 L -445.43033,-14.734664 z M -468.94919,-14.541135 L -473.67538,-9.8149526 L -473.67538,2.3671894 L -468.94919,7.0933716 L -468.94919,-14.541135 z"
       id="path2823"
       style="fill:#da121a;fill-opacity:1;fill-rule:evenodd;stroke:none;stroke-width:14.5;stroke-linecap:butt;stroke-linejoin:miter;stroke-miterlimit:4;stroke-opacity:1" />
    <rect
       width="31.94875"
       height="32.055378"
       x="-341.87814"
       y="304.55435"
       transform="matrix(0.7071068,0.7071068,-0.7071068,0.7071068,0,0)"
       id="rect2825"
       style="fill:none;fill-opacity:1;stroke:#000000;stroke-width:0.90241665;stroke-opacity:1" />
    <rect
       width="31.94875"
       height="32.055378"
       x="-403.57483"
       y="366.25101"
       transform="matrix(0.7071068,0.7071068,-0.7071068,0.7071068,0,0)"
       id="rect2829"
       style="fill:#fcdd09;fill-opacity:1;stroke:#000000;stroke-width:0.90241665;stroke-opacity:1" />
    <path
       d="M -542.09422,-24.1361 L -542.09422,16.53555 L -537.36803,11.809368 L -537.36803,-19.409917 L -542.09422,-24.1361 z M -546.77966,-23.952756 L -551.50584,-19.226574 L -551.50584,11.788997 L -546.77966,16.515179 L -546.77966,-23.952756 z M -532.6826,-14.734664 L -532.6826,7.1239289 L -527.95641,2.3977467 L -527.95641,-10.008482 L -532.6826,-14.734664 z M -556.20146,-14.541135 L -560.92765,-9.8149526 L -560.92765,2.3671894 L -556.20146,7.0933716 L -556.20146,-14.541135 z"
       id="path2831"
       style="fill:#da121a;fill-opacity:1;fill-rule:evenodd;stroke:none;stroke-width:14.5;stroke-linecap:butt;stroke-linejoin:miter;stroke-miterlimit:4;stroke-opacity:1" />
    <rect
       width="31.94875"
       height="32.055378"
       x="-403.57483"
       y="366.25101"
       transform="matrix(0.7071068,0.7071068,-0.7071068,0.7071068,0,0)"
       id="rect2833"
       style="fill:none;fill-opacity:1;stroke:#000000;stroke-width:0.90241665;stroke-opacity:1" />
    <path
       d="M -532.6946,111.9693 C -534.1784,111.2948 -535.47198,110.66335 -535.56924,110.56609 C -535.6665,110.46884 -535.28355,109.27824 -534.71825,107.92032 L -533.69043,105.45139 L -532.4955,106.05183 C -531.83829,106.38207 -530.75259,106.8295 -530.08283,107.0461 C -529.41306,107.26271 -528.78215,107.57411 -528.6808,107.73811 C -528.46465,108.08784 -529.52953,113.27443 -529.80785,113.22752 C -529.91178,113.21001 -531.21082,112.64381 -532.6946,111.9693 z M -528.53005,112.75331 C -528.53005,112.47498 -528.30473,111.25661 -528.02935,110.04581 L -527.52864,107.84438 L -526.21339,107.76677 C -523.76435,107.62227 -523.64091,107.76179 -523.64091,110.67378 L -523.64091,113.25937 L -526.08549,113.25937 C -528.07794,113.25937 -528.53005,113.16577 -528.53005,112.75331 z M -523.31497,110.65802 C -523.31497,107.63903 -523.33651,107.65623 -519.72959,107.79801 L -517.61096,107.88129 L -517.51627,110.57033 L -517.42161,113.25937 L -520.36828,113.25937 L -523.31497,113.25937 L -523.31497,110.65802 z M -516.72778,110.57033 L -516.63312,107.88129 L -513.8626,107.88129 L -511.09205,107.88129 L -510.9974,110.57033 L -510.90274,113.25937 L -513.8626,113.25937 L -516.82243,113.25937 L -516.72778,110.57033 z M -510.60314,110.64159 C -510.60314,107.80283 -510.38136,107.4579 -508.80973,107.85235 C -508.02658,108.04891 -507.99559,108.15572 -507.99559,110.65802 L -507.99559,113.25937 L -509.29936,113.25937 L -510.60314,113.25937 L -510.60314,110.64159 z M -493.91173,110.57033 L -493.81704,107.88129 L -492.83921,107.88129 L -491.86138,107.88129 L -491.76672,110.57033 L -491.67207,113.25937 L -492.83921,113.25937 L -494.00638,113.25937 L -493.91173,110.57033 z M -491.30418,110.57033 L -491.20949,107.88129 L -488.43897,107.88129 L -485.66845,107.88129 L -485.5738,110.57033 L -485.47911,113.25937 L -488.43897,113.25937 L -491.39883,113.25937 L -491.30418,110.57033 z M -484.78531,110.57033 L -484.69062,107.88129 L -481.9201,107.88129 L -479.14958,107.88129 L -479.05492,110.57033 L -478.96024,113.25937 L -481.9201,113.25937 L -484.87996,113.25937 L -484.78531,110.57033 z M -478.44336,113.04207 C -478.56288,112.92256 -478.66066,111.76485 -478.66066,110.46939 C -478.66066,107.85107 -478.55121,107.71832 -476.39232,107.71832 C -474.88998,107.71832 -474.62121,108.02562 -474.1117,110.32587 C -473.89328,111.31185 -473.64419,112.37524 -473.55811,112.68896 C -473.41933,113.19492 -473.67418,113.25937 -475.81387,113.25937 C -477.14059,113.25937 -478.32386,113.16158 -478.44336,113.04207 z M -473.14433,110.89627 C -473.39462,109.59657 -473.60146,108.32747 -473.60397,108.07605 C -473.60802,107.67013 -469.58577,105.7675 -468.71938,105.76552 C -468.40416,105.76481 -466.58559,109.82867 -466.6057,110.48884 C -466.61402,110.76187 -471.92993,113.25937 -472.50274,113.25937 C -472.60535,113.25937 -472.89407,112.19597 -473.14433,110.89627 z M -466.89938,108.17207 C -467.45221,106.85508 -467.90283,105.66418 -467.90071,105.52564 C -467.89703,105.28123 -462.66958,103.0384 -462.53861,103.22504 C -462.10263,103.8464 -460.69452,107.76356 -460.79683,108.07047 C -460.8719,108.29568 -462.04953,108.94944 -463.41377,109.52327 L -465.89423,110.5666 L -466.89938,108.17207 z M -539.20471,109.25982 C -540.50441,108.70323 -541.5678,108.15099 -541.5678,108.03262 C -541.5678,107.4393 -539.73106,103.44005 -539.44917,103.4196 C -539.2699,103.40659 -538.05463,103.81845 -536.74857,104.33484 C -534.61295,105.17923 -534.39239,105.34867 -534.55741,106.0181 C -534.87263,107.29672 -536.30393,110.3272 -536.57922,110.29883 C -536.72354,110.28396 -537.90501,109.8164 -539.20471,109.25982 z M -460.81545,106.17695 C -462.2936,102.82189 -462.35934,103.05464 -459.60714,101.89935 C -458.26301,101.33514 -457.04992,100.87476 -456.91136,100.8763 C -456.67345,100.87893 -453.88895,105.17663 -453.88895,105.54118 C -453.88895,105.63519 -454.43898,105.89 -455.11124,106.10743 C -455.7835,106.32487 -456.84689,106.75745 -457.47433,107.06872 C -459.85984,108.25218 -459.90665,108.23969 -460.81545,106.17695 z M -545.56061,106.64458 C -546.94994,106.06989 -548.08527,105.45301 -548.08357,105.27374 C -548.07902,104.79338 -545.54013,100.87351 -545.23355,100.87351 C -544.88684,100.87351 -540.64354,102.66695 -540.38972,102.92076 C -540.00815,103.30234 -541.9712,107.71903 -542.51564,107.70389 C -542.80104,107.69596 -544.17127,107.21927 -545.56061,106.64458 z M -527.22629,106.91273 C -527.22629,106.64892 -526.98366,105.32885 -526.68708,103.97923 L -526.14791,101.52539 L -523.46252,101.52539 C -521.59813,101.52539 -520.73897,101.64996 -520.65224,101.93282 C -520.58356,102.15691 -520.57945,103.47698 -520.64311,104.86631 L -520.75892,107.39238 L -523.9926,107.39238 C -526.62193,107.39238 -527.22629,107.30273 -527.22629,106.91273 z M -520.05553,104.45889 L -520.05553,101.52539 L -517.12204,101.52539 L -514.18855,101.52539 L -514.18855,104.45889 L -514.18855,107.39238 L -517.12204,107.39238 L -520.05553,107.39238 L -520.05553,104.45889 z M -513.5924,104.98364 C -513.75462,101.33977 -513.90758,101.52539 -510.74222,101.52539 L -507.99559,101.52539 L -507.99559,104.45889 L -507.99559,107.39238 L -510.74036,107.39238 L -513.48513,107.39238 L -513.5924,104.98364 z M -493.98001,104.47207 L -493.98001,101.52539 L -491.19681,101.52539 L -488.41361,101.52539 L -488.50778,104.3774 L -488.60194,107.22941 L -491.29098,107.32407 L -493.98001,107.41874 L -493.98001,104.47207 z M -488.11303,104.45889 L -488.11303,101.52539 L -485.17953,101.52539 L -482.24604,101.52539 L -482.24604,104.45889 L -482.24604,107.39238 L -485.17953,107.39238 L -488.11303,107.39238 L -488.11303,104.45889 z M -481.65843,104.86631 C -481.72212,103.47698 -481.71801,102.15691 -481.6493,101.93282 C -481.5626,101.64996 -480.70345,101.52539 -478.83905,101.52539 L -476.15367,101.52539 L -475.61449,103.97923 C -474.80739,107.65231 -474.60218,107.39238 -478.30897,107.39238 L -481.54266,107.39238 L -481.65843,104.86631 z M -529.7658,106.66262 C -530.24917,106.42981 -530.44529,106.12139 -530.32175,105.78833 C -529.22922,102.84302 -528.30135,100.88082 -527.99956,100.87752 C -527.12597,100.86797 -526.9245,101.70609 -527.36974,103.4976 C -527.6125,104.47448 -527.90236,105.6771 -528.01384,106.17009 C -528.23107,107.13072 -528.58644,107.23063 -529.7658,106.66262 z M -474.63461,104.31307 C -475.29689,101.59366 -475.21733,100.87351 -474.25462,100.87351 C -473.90264,100.87351 -471.60004,105.99886 -471.85359,106.21801 C -472.15069,106.47479 -473.42669,107.06643 -473.68341,107.06643 C -473.83777,107.06643 -474.26583,105.82742 -474.63461,104.31307 z M -533.74515,105.02528 C -535.08967,104.4682 -536.24476,103.97227 -536.31202,103.92323 C -536.43545,103.83321 -535.9856,102.63854 -534.77065,99.82988 L -534.10772,98.297335 L -531.64453,99.368425 C -530.28977,99.957529 -529.10098,100.51987 -529.00277,100.61809 C -528.83923,100.78162 -530.67672,105.3118 -531.11228,105.81892 C -531.21584,105.9395 -532.40064,105.58237 -533.74515,105.02528 z M -471.49776,105.25313 C -471.67188,104.79513 -472.18922,103.60086 -472.64739,102.59919 C -473.10557,101.59753 -473.36258,100.6664 -473.21855,100.53003 C -472.82764,100.15993 -468.97114,98.591897 -468.45178,98.591897 C -468.06267,98.591897 -465.94886,102.74946 -465.94886,103.51479 C -465.94886,103.842 -467.2206,104.52476 -469.51345,105.42852 L -471.18114,106.08586 L -471.49776,105.25313 z M -551.6745,102.33779 L -554.1052,99.89076 L -552.1489,97.934459 L -550.19261,95.978165 L -548.10425,98.085247 L -546.0159,100.19233 L -547.5428,102.48858 C -548.3826,103.75152 -549.10887,104.78483 -549.15675,104.78483 C -549.20462,104.78483 -550.33761,103.68366 -551.6745,102.33779 z M -454.31838,103.06313 C -456.36185,99.86871 -456.38317,100.25053 -454.03113,97.919394 L -451.92709,95.834079 L -449.89875,97.862419 L -447.87043,99.89076 L -450.30112,102.33779 C -451.63801,103.68366 -452.84101,104.78483 -452.97442,104.78483 C -453.10786,104.78483 -453.71265,104.01006 -454.31838,103.06313 z M -539.8527,102.52869 C -540.97099,102.04092 -541.97153,101.55626 -542.07613,101.45166 C -542.23167,101.29612 -540.45812,96.395738 -540.12613,96.063745 C -540.0721,96.009717 -538.8283,96.435067 -537.36213,97.008965 C -535.27619,97.825464 -534.74105,98.164259 -534.90176,98.566617 C -535.01473,98.849425 -535.47773,100.07087 -535.93066,101.28094 C -536.50274,102.80932 -536.9168,103.47105 -537.28681,103.4483 C -537.57976,103.43028 -538.73441,103.01645 -539.8527,102.52869 z M -466.48396,100.87593 C -467.22441,99.004007 -467.40492,98.208141 -467.13585,98.001783 C -466.63716,97.61935 -462.31234,95.926832 -462.17776,96.061437 C -462.11935,96.11984 -461.57372,97.334234 -460.96528,98.760094 L -459.859,101.35257 L -462.30644,102.41681 C -463.65252,103.00215 -464.91275,103.47737 -465.10692,103.47287 C -465.30108,103.46838 -465.92077,102.29975 -466.48396,100.87593 z M -543.93089,100.8056 C -544.42388,100.6338 -544.82724,100.34776 -544.82724,100.16996 C -544.82724,99.992151 -544.22383,98.830974 -543.48632,97.589565 C -542.23116,95.476815 -541.29184,94.78645 -540.786,95.604924 C -540.61586,95.880209 -542.38976,100.53724 -542.80836,100.91425 C -542.93276,101.02629 -543.4379,100.9774 -543.93089,100.8056 z M -459.75069,100.46608 C -461.81518,95.529739 -461.85348,95.332461 -460.74674,95.332461 C -460.18126,95.332461 -459.79172,95.836468 -457.91184,99.000412 L -457.18496,100.22379 L -458.1283,100.71162 C -459.34538,101.34099 -459.38742,101.33463 -459.75069,100.46608 z M -525.73647,99.977161 C -525.62731,99.484168 -525.4177,98.640789 -525.27063,98.102982 C -525.12356,97.565175 -524.91392,96.721796 -524.80476,96.228806 C -524.6956,95.735816 -524.38908,95.332461 -524.1236,95.332461 C -523.73514,95.332461 -523.64091,95.873433 -523.64091,98.102982 L -523.64091,100.87351 L -524.78791,100.87351 C -525.87001,100.87351 -525.92369,100.82278 -525.73647,99.977161 z M -523.31497,98.102982 L -523.31497,95.332461 L -520.38148,95.332461 L -517.44798,95.332461 L -517.44798,98.102982 L -517.44798,100.87351 L -520.38148,100.87351 L -523.31497,100.87351 L -523.31497,98.102982 z M -516.7961,98.102982 L -516.7961,95.332461 L -513.8626,95.332461 L -510.92908,95.332461 L -510.92908,98.102982 L -510.92908,100.87351 L -513.8626,100.87351 L -516.7961,100.87351 L -516.7961,98.102982 z M -510.53485,98.184468 L -510.44016,95.495433 L -507.53425,95.400469 L -504.6283,95.305509 L -505.96339,96.753911 C -506.69768,97.550534 -507.47854,98.803334 -507.69862,99.537909 C -508.07776,100.80334 -508.16527,100.87351 -509.36416,100.87351 L -510.6295,100.87351 L -510.53485,98.184468 z M -494.44337,99.333826 C -494.7319,98.487002 -495.50885,97.240268 -496.16986,96.563306 L -497.37175,95.332461 L -494.53509,95.332461 L -491.69841,95.332461 L -491.69841,98.102982 L -491.69841,100.87351 L -492.80857,100.87351 C -493.84077,100.87351 -493.9556,100.76538 -494.44337,99.333826 z M -491.37246,98.618556 C -491.37246,95.276865 -491.42546,95.332461 -488.24112,95.332461 L -485.50548,95.332461 L -485.50548,98.102982 L -485.50548,100.87351 L -488.43897,100.87351 L -491.37246,100.87351 L -491.37246,98.618556 z M -484.85359,98.102982 L -484.85359,95.332461 L -481.9201,95.332461 L -478.98661,95.332461 L -478.98661,98.102982 L -478.98661,100.87351 L -481.9201,100.87351 L -484.85359,100.87351 L -484.85359,98.102982 z M -478.65623,98.836355 C -478.64707,94.649733 -477.88505,94.247685 -476.99111,97.957846 C -476.66954,99.292552 -476.40028,100.4946 -476.39275,100.62905 C -476.38522,100.7635 -476.89242,100.87351 -477.51986,100.87351 L -478.66066,100.87351 L -478.65623,98.836355 z M -529.22924,99.823094 L -531.06923,99.141806 L -529.94358,96.511885 C -529.32447,95.065429 -528.75642,93.820464 -528.68125,93.745295 C -528.41963,93.483677 -525.59657,94.737112 -525.59641,95.114962 C -525.59595,96.182757 -526.77607,100.54463 -527.06035,100.52597 C -527.24125,100.51409 -528.21724,100.1978 -529.22924,99.823094 z M -475.55556,100.14013 C -475.8613,99.209808 -476.705,95.574367 -476.705,95.187446 C -476.705,94.661027 -473.81264,93.526841 -473.44648,93.909678 C -473.09498,94.277193 -471.4899,98.262394 -471.4899,98.767607 C -471.4899,98.981703 -472.24283,99.469777 -473.1631,99.852217 C -475.10605,100.65968 -475.37424,100.69195 -475.55556,100.14013 z M -556.53754,97.47498 L -558.6198,95.374048 L -556.69416,93.384945 L -554.76852,91.395842 L -552.65624,93.530215 L -550.54395,95.664588 L -552.49962,97.62025 L -554.45528,99.575911 L -556.53754,97.47498 z M -549.03965,96.498228 L -552.09837,93.426728 L -550.05288,91.431422 C -548.92786,90.334005 -548.08806,89.355448 -548.18665,89.25685 C -548.28525,89.158255 -549.25469,90.008238 -550.34096,91.145706 L -552.316,93.213828 L -554.44182,91.088962 L -556.56764,88.964097 L -554.44173,86.857087 L -552.31583,84.75008 L -547.42941,89.636499 L -542.54299,94.522915 L -544.07975,97.046322 C -544.92497,98.434196 -545.6985,99.569728 -545.79871,99.569728 C -545.89893,99.569728 -547.35734,98.187554 -549.03965,96.498228 z M -456.72837,99.181793 C -456.91758,98.946983 -457.6625,97.784616 -458.38371,96.598752 L -459.69505,94.442635 L -456.96628,91.72803 L -454.23748,89.013425 L -452.14026,91.152329 L -450.04304,93.29123 L -453.21369,96.449972 C -455.67766,98.904712 -456.461,99.513565 -456.72837,99.181793 z M -449.57675,97.526697 L -451.608,95.477242 L -449.50983,93.397728 L -447.41167,91.318215 L -445.35372,93.314668 L -443.29578,95.311118 L -445.42064,97.443637 L -447.5455,99.576156 L -449.57675,97.526697 z M -471.08544,97.982777 C -472.36793,95.028385 -472.79368,93.927191 -472.79368,93.564569 C -472.79368,93.207123 -468.57049,91.258166 -467.79595,91.258166 C -467.638,91.258166 -467.0177,92.431563 -466.41747,93.865715 L -465.32618,96.473264 L -467.18575,97.35075 C -470.53838,98.932763 -470.66422,98.953157 -471.08544,97.982777 z M -534.76121,97.511587 L -536.91807,96.473264 L -535.78191,93.804206 L -534.64575,91.135149 L -532.97316,91.803555 C -532.05324,92.171177 -530.89722,92.616559 -530.40423,92.793292 C -529.30852,93.186097 -529.31171,93.595651 -530.43163,96.310292 C -531.4839,98.860947 -531.78481,98.944441 -534.76121,97.511587 z M -539.61214,95.513523 C -540.75536,95.046459 -541.36626,94.615304 -541.29836,94.323418 C -541.21874,93.981151 -538.94723,90.132005 -538.47727,89.543009 C -538.27157,89.285191 -535.37487,90.870743 -535.37487,91.241162 C -535.37487,91.897146 -537.22725,96.118037 -537.54526,96.186714 C -537.69607,96.219279 -538.62616,95.916344 -539.61214,95.513523 z M -465.93279,93.853922 C -466.50437,92.480914 -466.90655,91.188509 -466.8265,90.981909 C -466.74648,90.775313 -466.00838,90.358656 -465.18632,90.056005 L -463.69164,89.505727 L -462.2127,91.941742 C -461.39928,93.281546 -460.73376,94.484796 -460.73376,94.61563 C -460.73376,94.746464 -461.50381,95.126814 -462.44497,95.460854 C -463.38613,95.794894 -464.32208,96.131672 -464.52485,96.20925 C -464.73387,96.289213 -465.34362,95.26916 -465.93279,93.853922 z M -561.04875,92.959452 L -563.0532,90.932223 L -561.13069,88.947911 L -559.20817,86.963595 L -557.22006,88.969537 C -555.91422,90.287086 -555.30627,91.135833 -555.44852,91.442764 C -555.56763,91.699774 -556.4254,92.602296 -557.35468,93.448367 L -559.04428,94.986681 L -561.04875,92.959452 z M -445.02319,92.985765 L -447.0735,90.979396 L -445.05695,88.944755 C -442.76358,86.630807 -442.92339,86.618463 -440.45368,89.300282 L -438.91536,90.970717 L -440.94413,92.981424 L -442.97287,94.992134 L -445.02319,92.985765 z M -524.29697,94.273145 C -524.29925,94.049058 -524.05245,92.802324 -523.74844,91.502624 L -523.19577,89.139533 L -501.16338,89.139533 L -479.131,89.139533 L -478.56715,91.339652 C -478.25705,92.549718 -478.00454,93.796452 -478.00604,94.110173 C -478.00861,94.648032 -479.32911,94.680574 -501.15077,94.680574 C -519.44488,94.680574 -524.29368,94.595222 -524.29697,94.273145 z M -528.36708,93.098186 C -531.68782,91.72615 -531.6176,91.899838 -530.16256,88.65683 L -529.21747,86.5504 L -528.14039,87.003585 C -527.548,87.252834 -526.37734,87.752245 -525.53891,88.113381 L -524.01448,88.770001 L -524.48739,90.828941 C -525.37936,94.712481 -524.99879,94.489874 -528.36708,93.098186 z M -477.52472,91.812339 C -477.8283,90.431929 -478.09808,89.176286 -478.12422,89.02202 C -478.15037,88.867755 -477.14502,88.309192 -475.89014,87.780768 C -474.63526,87.252345 -473.45384,86.750503 -473.2648,86.665559 C -472.94948,86.523881 -470.59043,91.652164 -470.87576,91.859056 C -470.94463,91.908997 -471.58769,92.178321 -472.30476,92.457554 C -473.02184,92.736787 -474.36548,93.270558 -475.29063,93.643712 L -476.97273,94.322173 L -477.52472,91.812339 z M -543.86841,92.542576 L -545.29918,91.084735 L -543.27202,89.057581 L -541.24487,87.030424 L -540.22837,88.046921 L -539.21187,89.063425 L -540.59345,91.388964 C -541.35332,92.668012 -542.07912,93.778835 -542.20634,93.857462 C -542.33356,93.93609 -543.08149,93.344391 -543.86841,92.542576 z M -461.52695,91.567907 L -463.09607,89.090873 L -462.02062,87.981279 L -460.94517,86.871689 L -459.12826,88.567525 C -458.12895,89.500235 -457.2079,90.425811 -457.08144,90.624362 C -456.95086,90.829378 -457.52263,91.646378 -458.40467,92.515151 L -459.95779,94.044942 L -461.52695,91.567907 z M -452.01275,90.684088 L -453.88487,88.66405 L -451.85601,86.616971 L -449.8271,84.569892 L -447.7089,86.688127 L -445.59065,88.806366 L -447.52946,90.765639 C -448.59582,91.843238 -449.61958,92.720235 -449.80445,92.714521 C -449.98933,92.708804 -450.98306,91.795109 -452.01275,90.684088 z M -535.04893,90.389882 C -536.39345,89.845312 -537.62292,89.277788 -537.7811,89.128718 C -537.99484,88.927295 -536.09574,85.382827 -535.19849,84.308553 C -535.11302,84.206223 -530.12073,86.136432 -529.90002,86.357145 C -529.65402,86.603144 -531.87665,91.419701 -532.22734,91.400574 C -532.43469,91.389264 -533.70441,90.934452 -535.04893,90.389882 z M -471.26908,89.296051 C -471.74906,88.12725 -472.14179,86.967539 -472.14179,86.718916 C -472.14179,86.323168 -467.34341,84.031211 -467.09697,84.309234 C -467.04618,84.366496 -466.52259,85.220058 -465.93341,86.206037 C -465.3442,87.192017 -464.66246,88.234906 -464.41839,88.523571 C -464.02267,88.991607 -464.29607,89.176824 -466.94439,90.234775 C -468.57779,90.887275 -470.02267,91.421138 -470.15529,91.421138 C -470.28789,91.421138 -470.78909,90.464849 -471.26908,89.296051 z M -547.76348,88.64785 L -549.86666,86.525798 L -547.83574,84.494879 L -545.80483,82.463963 L -543.6831,84.58569 L -541.56138,86.707417 L -543.61083,88.738658 L -545.66029,90.769896 L -547.76348,88.64785 z M -565.63384,88.378956 L -567.64473,86.350023 L -565.68796,84.413664 L -563.73118,82.477304 L -561.61383,84.575834 L -559.49648,86.674363 L -561.04382,88.257389 C -563.41854,90.686875 -563.34827,90.685014 -565.63384,88.378956 z M -458.61552,88.487248 L -460.55117,86.531185 L -458.45144,84.412627 L -456.35171,82.294069 L -454.30547,84.322122 C -453.18005,85.437553 -452.25923,86.211992 -452.25923,86.043101 C -452.25923,85.87421 -453.09958,84.886823 -454.12666,83.848908 L -455.99409,81.961789 L -453.96369,79.931391 L -451.93329,77.900994 L -449.90012,79.934159 L -447.86695,81.967326 L -452.09554,86.205314 C -454.42125,88.536211 -456.40416,90.443307 -456.50201,90.443307 C -456.59982,90.443307 -457.55093,89.56308 -458.61552,88.487248 z M -440.80098,88.264668 L -442.54344,86.449618 L -440.48413,84.371842 L -438.42482,82.294069 L -436.40247,84.298449 L -434.38012,86.302826 L -436.25801,88.210095 C -437.29086,89.259092 -438.34353,90.108892 -438.59721,90.09854 C -438.85092,90.088188 -439.8426,89.262948 -440.80098,88.264668 z M -561.28359,84.254183 L -565.50766,80.020726 L -563.88645,78.32196 C -561.21325,75.520899 -561.54714,75.556867 -559.24992,77.822497 L -557.21245,79.831946 L -559.16844,81.805473 C -560.24423,82.890914 -561.12442,83.917489 -561.12442,84.086758 C -561.12442,84.256024 -560.17104,83.449604 -559.00579,82.294714 L -556.88716,80.194914 L -554.7682,82.295033 L -552.64924,84.395156 L -554.6773,86.441398 C -555.79273,87.566832 -556.78504,88.487646 -556.88244,88.487646 C -556.97984,88.487646 -558.96036,86.582587 -561.28359,84.254183 z M -551.998,75.408318 C -559.07913,68.216917 -564.91025,62.238407 -564.95606,62.122746 C -565.04251,61.904452 -560.75181,59.152712 -560.32499,59.152712 C -559.79001,59.152712 -536.19107,83.411325 -536.21169,83.940067 C -536.23336,84.496124 -538.64451,88.481166 -538.96025,88.482773 C -539.04989,88.483229 -544.91687,82.599725 -551.998,75.408318 z M -465.01448,86.086582 L -466.52467,83.68883 L -454.42131,71.592144 C -447.76447,64.938967 -442.21456,59.40052 -442.08823,59.284484 C -441.96186,59.168448 -441.15515,59.492818 -440.29554,60.005305 C -439.43589,60.51779 -438.43922,61.089971 -438.08068,61.276818 C -437.72215,61.463665 -437.4288,61.785671 -437.4288,61.992381 C -437.4288,62.376363 -462.9274,88.488995 -463.2994,88.485993 C -463.41211,88.485084 -464.18388,87.405347 -465.01448,86.086582 z M -447.37008,86.369009 L -449.47626,84.243948 L -447.35763,82.125315 L -445.23899,80.006681 L -443.13281,82.131742 L -441.02663,84.256803 L -443.14526,86.375437 L -445.26389,88.494073 L -447.37008,86.369009 z M -526.48901,86.8871 C -527.60729,86.397291 -528.60405,85.914748 -528.70401,85.814781 C -528.88007,85.638726 -526.69148,79.770336 -526.26766,79.28203 C -525.90267,78.861508 -521.68303,80.71893 -521.70559,81.290192 C -521.75992,82.666166 -523.52126,87.669302 -523.96963,87.721294 C -524.237,87.752297 -525.37073,87.376908 -526.48901,86.8871 z M -480.04739,84.816223 C -480.72043,83.160489 -481.27046,81.638052 -481.26968,81.43303 C -481.26854,81.144029 -477.50291,79.361222 -476.89359,79.361222 C -476.56194,79.361222 -473.43703,85.671408 -473.67011,85.870403 C -474.08269,86.222618 -478.00627,87.836293 -478.43768,87.831202 C -478.64997,87.828698 -479.37432,86.471958 -480.04739,84.816223 z M -522.60444,86.857924 C -522.50079,86.589021 -521.9431,85.244715 -521.36514,83.87058 L -520.31427,81.372147 L -518.96261,81.946202 C -518.2192,82.261934 -517.61096,82.641704 -517.61096,82.790138 C -517.61096,82.93857 -518.77689,84.024552 -520.20191,85.203428 C -521.62694,86.382304 -522.70809,87.126828 -522.60444,86.857924 z M -482.40901,84.903019 C -483.6639,83.843226 -484.66428,82.859473 -484.63211,82.716905 C -484.59991,82.574334 -484.14662,82.283466 -483.62475,82.07053 L -482.67593,81.683374 L -481.29738,84.270649 C -480.53917,85.693651 -479.96577,86.851621 -480.02311,86.843919 C -480.08047,86.836217 -481.15413,85.962812 -482.40901,84.903019 z M -552.25188,84.160119 L -554.28025,82.113551 L -552.19005,80.041929 L -550.09985,77.970306 L -549.3261,78.747248 C -548.90054,79.17457 -548.01401,80.121524 -547.35602,80.851599 L -546.1597,82.179004 L -548.1916,84.192843 L -550.2235,86.206683 L -552.25188,84.160119 z M -570.01659,83.996466 C -571.04178,82.96047 -571.8772,81.970416 -571.87308,81.796346 C -571.86897,81.622276 -571.06347,80.690843 -570.0831,79.726494 C -568.06287,77.739284 -568.34546,77.689845 -565.65001,80.502024 L -564.08793,82.131742 L -565.9369,84.005918 C -566.95383,85.036715 -567.86838,85.880094 -567.96924,85.880094 C -568.0701,85.880094 -568.99141,85.032461 -570.01659,83.996466 z M -436.12541,83.924034 L -438.06106,81.967975 L -435.97551,79.863716 L -433.88996,77.759453 L -431.99251,79.607713 C -430.94891,80.624256 -430.09507,81.547244 -430.09507,81.658795 C -430.09507,81.872888 -433.87047,85.880094 -434.07216,85.880094 C -434.13686,85.880094 -435.06082,84.999867 -436.12541,83.924034 z M -532.19692,84.46909 C -533.58625,83.900625 -534.72297,83.32275 -534.72298,83.184925 C -534.72299,82.631016 -532.12659,76.92036 -531.82975,76.82141 C -531.50064,76.711708 -528.25829,77.975498 -527.76077,78.407403 C -527.49845,78.635124 -529.03275,84.806126 -529.47049,85.283949 C -529.58069,85.404242 -530.80758,85.037555 -532.19692,84.46909 z M -473.32796,84.341503 C -473.60795,83.663941 -474.24885,82.1358 -474.75217,80.945637 L -475.66733,78.781697 L -473.6601,77.92972 C -472.55613,77.461133 -471.48518,77.078166 -471.28019,77.078681 C -470.92143,77.079581 -468.14598,81.672409 -467.74967,82.921011 C -467.59442,83.41023 -467.83053,83.625936 -468.95279,84.020136 C -469.72078,84.289883 -470.9048,84.749724 -471.584,85.042008 L -472.81891,85.57343 L -473.32796,84.341503 z M -442.8096,81.803031 L -444.91279,79.680982 L -442.91792,77.686103 L -440.92304,75.69122 L -440.15375,76.294767 C -439.73064,76.626721 -438.76611,77.571697 -438.01035,78.394711 L -436.63627,79.891098 L -438.67133,81.908089 L -440.70642,83.925077 L -442.8096,81.803031 z M -519.56662,80.76845 C -522.42381,79.523558 -527.80487,77.296815 -532.09005,75.586123 C -533.59988,74.983385 -534.95999,74.365438 -535.11251,74.212913 C -535.33611,73.989316 -534.64913,71.717081 -534.21962,71.259594 C -534.15971,71.19579 -533.43474,71.401741 -532.60856,71.717261 C -531.46425,72.154276 -531.15776,72.414845 -531.32196,72.811098 C -531.92286,74.261198 -531.86715,74.337156 -529.50582,75.287754 C -527.54399,76.077532 -527.13121,76.151156 -526.88112,75.755917 C -526.71792,75.497972 -526.58213,75.10358 -526.57939,74.879494 C -526.57665,74.655408 -526.4307,74.472064 -526.25504,74.472064 C -525.87059,74.472064 -523.31497,75.47601 -523.31497,75.627039 C -523.31497,75.685539 -523.45369,76.098275 -523.62325,76.544231 C -523.99665,77.52641 -523.8224,77.684978 -521.24676,78.706505 C -519.65201,79.338999 -519.29426,79.387525 -519.05163,79.004255 C -518.89217,78.752414 -518.75948,78.363019 -518.75674,78.138933 C -518.75016,77.601446 -518.37979,77.624777 -516.78423,78.263196 C -516.05337,78.555626 -515.51631,78.958981 -515.59076,79.159541 C -515.6652,79.3601 -515.92299,80.074223 -516.1636,80.746482 C -516.40421,81.418741 -516.68162,81.954325 -516.78006,81.936671 C -516.87853,81.919015 -518.13247,81.393317 -519.56662,80.76845 z M -468.47757,79.499875 C -469.06162,78.0791 -469.53832,76.744673 -469.53688,76.534489 C -469.53431,76.160651 -467.22115,75.215304 -466.95476,75.47921 C -466.78139,75.650937 -466.93295,78.77304 -467.20528,80.640677 L -467.41561,82.083105 L -468.47757,79.499875 z M -556.81541,79.596582 L -558.84346,77.550341 L -556.77786,75.503099 L -554.71227,73.45586 L -552.70325,75.373481 C -551.59828,76.428172 -550.69422,77.42261 -550.69422,77.583339 C -550.69422,77.897976 -554.30167,81.642827 -554.60476,81.642827 C -554.70519,81.642827 -555.69998,80.722017 -556.81541,79.596582 z M -486.2986,80.298368 C -486.59446,79.558916 -486.79374,78.921452 -486.74142,78.881785 C -486.31626,78.55942 -484.33941,77.731504 -483.99486,77.731504 C -483.75692,77.731504 -483.47022,78.09819 -483.35774,78.546363 C -483.10406,79.557114 -483.0597,79.556211 -480.45661,78.487204 C -478.24965,77.580862 -478.25454,77.588812 -478.87826,75.922412 C -478.94873,75.734124 -478.48361,75.330769 -477.84463,75.026067 C -476.59532,74.430304 -475.72717,74.31126 -475.72717,74.73571 C -475.72717,74.880716 -475.52743,75.27252 -475.2833,75.606387 C -474.85517,76.191899 -474.76192,76.180478 -472.65303,75.284195 C -470.45031,74.34801 -470.38417,74.252307 -470.96572,72.842346 C -471.11067,72.490947 -470.77631,72.192995 -469.777,71.78303 C -469.01228,71.469309 -468.29406,71.212628 -468.18096,71.212628 C -467.81799,71.212628 -466.88347,73.907533 -467.1544,74.17292 C -467.29807,74.313643 -470.49578,75.702635 -474.26042,77.259576 C -483.64111,81.13913 -484.91764,81.642827 -485.36894,81.642827 C -485.58439,81.642827 -486.00274,81.03782 -486.2986,80.298368 z M -449.60171,79.574607 L -451.65793,77.499963 L -449.64937,75.578581 C -448.54465,74.521826 -447.53976,73.619386 -447.41626,73.573161 C -447.2928,73.526939 -446.31816,74.371941 -445.2504,75.450948 L -443.30905,77.412783 L -445.42729,79.531019 L -447.5455,81.649254 L -449.60171,79.574607 z M -574.59172,79.384373 L -576.48801,77.46997 L -574.59172,75.462819 L -572.69542,73.455671 L -570.65417,75.525009 L -568.61292,77.59435 L -570.44474,79.455615 C -571.45224,80.479312 -572.3708,81.312809 -572.48599,81.307828 C -572.60118,81.302848 -573.54876,80.437295 -574.59172,79.384373 z M -535.15029,79.886131 C -535.44686,77.781549 -535.4364,75.448774 -535.13041,75.454344 C -534.2627,75.470143 -533.42167,75.931607 -533.43564,76.384255 C -533.44467,76.677066 -533.78363,77.943367 -534.18889,79.19825 L -534.92571,81.479855 L -535.15029,79.886131 z M -431.40741,79.5452 C -432.38867,78.571728 -433.19153,77.623616 -433.19153,77.438285 C -433.19153,77.060516 -429.8143,73.494234 -429.45654,73.494234 C -429.13343,73.494234 -425.8578,76.964588 -425.8578,77.306894 C -425.8578,77.462017 -426.70502,78.427334 -427.74055,79.452042 L -429.6233,81.315149 L -431.40741,79.5452 z M -567.89434,77.644105 L -569.92561,75.594614 L -567.85886,73.423634 L -565.79211,71.252651 L -563.70896,73.354488 L -561.6258,75.456323 L -563.74444,77.574959 L -565.86307,79.693593 L -567.89434,77.644105 z M -438.35099,77.330893 L -440.52161,75.264482 L -438.3874,73.157068 L -436.25318,71.049657 L -434.32363,73.16829 C -433.26239,74.333538 -432.39017,75.364853 -432.38537,75.460097 C -432.38058,75.555344 -433.2325,76.480177 -434.27852,77.515286 L -436.18037,79.397297 L -438.35099,77.330893 z M -579.00016,74.825909 C -581.15972,72.708775 -581.74625,71.864516 -581.05752,71.864516 C -580.90605,71.864516 -579.89696,71.292413 -578.8151,70.593176 L -576.84809,69.321836 L -574.95017,71.239773 L -573.05224,73.15771 L -573.89615,74.059345 C -574.36029,74.555245 -575.1737,75.445153 -575.70372,76.03692 L -576.66739,77.112859 L -579.00016,74.825909 z M -561.27033,75.141194 C -563.44508,72.943519 -563.48826,73.2577 -560.63551,70.522791 L -559.00579,68.960394 L -556.96832,70.973761 L -554.93085,72.987127 L -556.9589,75.033369 C -558.07433,76.158803 -559.06912,77.079616 -559.16955,77.079616 C -559.26997,77.079616 -560.21533,76.207326 -561.27033,75.141194 z M -445.08489,74.964591 L -447.18748,72.843142 L -445.25183,70.887082 C -444.18724,69.81125 -443.18027,68.931023 -443.01413,68.931023 C -442.84803,68.931023 -441.84709,69.84009 -440.78983,70.951173 L -438.86758,72.971319 L -440.92493,75.028681 L -442.98229,77.086044 L -445.08489,74.964591 z M -426.49411,75.857325 C -426.90874,75.364335 -427.67487,74.507455 -428.19664,73.953143 L -429.1453,72.945309 L -427.38745,71.101136 C -426.42064,70.086845 -425.53577,69.256967 -425.42107,69.256967 C -425.3064,69.256967 -424.16377,69.929238 -422.88187,70.750906 L -420.55118,72.244846 L -422.78832,74.499258 C -424.01873,75.739183 -425.18629,76.75367 -425.38283,76.75367 C -425.57941,76.75367 -426.07947,76.350314 -426.49411,75.857325 z M -573.4552,72.048723 L -576.49353,68.973494 L -575.50767,68.463682 C -574.96544,68.183289 -573.86958,67.513696 -573.07243,66.9757 C -572.27527,66.437708 -571.49398,65.997531 -571.33622,65.997531 C -571.17846,65.997531 -569.96468,67.08953 -568.63893,68.424194 L -566.22846,70.850854 L -568.10424,72.987404 C -569.13592,74.162506 -570.07831,75.123952 -570.19845,75.123952 C -570.31858,75.123952 -571.78411,73.740099 -573.4552,72.048723 z M -434.06881,72.753344 L -435.92392,70.723713 L -433.46685,68.240189 L -431.00979,65.756665 L -428.59677,67.231126 C -427.26959,68.04208 -426.18374,68.830294 -426.18374,68.982715 C -426.18374,69.372211 -431.53143,74.799651 -431.90617,74.790492 C -432.0753,74.786359 -433.04851,73.869642 -434.06881,72.753344 z M -565.67401,70.737464 L -567.67741,68.716096 L -565.6232,66.519086 L -563.569,64.322076 L -561.49598,66.427059 L -559.42295,68.532042 L -561.54678,70.645438 L -563.67061,72.758833 L -565.67401,70.737464 z M -440.52627,70.39673 L -442.63118,68.272953 L -440.58823,66.238895 L -438.54528,64.204838 L -436.57346,66.267979 C -435.48894,67.402706 -434.55036,68.279876 -434.48774,68.217249 C -434.4251,68.154622 -435.23109,67.152874 -436.2788,65.991139 L -438.18372,63.878894 L -437.50497,63.145521 C -437.13167,62.742166 -436.72372,62.412148 -436.59839,62.412148 C -436.38275,62.412148 -431.39884,65.333646 -431.39884,65.460059 C -431.39884,65.492879 -432.97892,67.094908 -434.9101,69.02012 L -438.42139,72.52051 L -440.52627,70.39673 z M -583.10345,69.012509 C -583.62228,67.623174 -584.16954,66.347105 -584.31957,66.1768 C -584.46961,66.006494 -584.59237,65.7635 -584.59237,65.636812 C -584.59237,65.390559 -579.70641,63.27377 -579.54211,63.448838 C -579.28122,63.726809 -577.34269,68.632557 -577.4552,68.730053 C -577.75389,68.988875 -581.90364,71.538572 -582.0262,71.538572 C -582.09985,71.538572 -582.58462,70.401844 -583.10345,69.012509 z M -422.27242,70.173012 C -423.43767,69.463276 -424.50422,68.77296 -424.64258,68.638978 C -424.83476,68.452828 -423.23183,64.145298 -422.70006,63.418926 C -422.56049,63.228307 -418.0361,65.080387 -417.83114,65.412038 C -417.64539,65.712588 -418.45034,67.991491 -419.49254,70.115747 L -420.15379,71.463445 L -422.27242,70.173012 z M -577.39284,67.243734 C -577.58955,66.67945 -577.71316,66.180926 -577.66753,66.135897 C -577.27215,65.745694 -572.39519,63.762281 -572.17132,63.900641 C -571.43966,64.352829 -572.03251,65.269985 -573.7615,66.36072 C -577.03466,68.425579 -576.98505,68.413513 -577.39284,67.243734 z M -569.36984,67.043106 C -570.03366,66.363288 -570.57679,65.728849 -570.57679,65.633243 C -570.57679,65.537641 -569.46761,64.756781 -568.11195,63.898004 L -565.64711,62.336588 L -564.84625,63.088953 C -564.40578,63.502755 -564.08488,63.940869 -564.13314,64.06254 C -564.29026,64.45864 -567.76276,68.279136 -567.96567,68.279136 C -568.07414,68.279136 -568.70601,67.722923 -569.36984,67.043106 z M -427.88201,66.710699 C -429.9585,65.448159 -430.36205,65.069403 -430.20462,64.530781 C -430.09982,64.172243 -429.9835,63.842304 -429.94608,63.797581 C -429.76691,63.583283 -424.79917,65.828855 -424.66204,66.186115 C -424.57567,66.411287 -424.69933,66.965238 -424.93691,67.417119 L -425.36888,68.238722 L -427.88201,66.710699 z M -520.75191,65.753073 C -520.81707,65.26008 -520.82636,62.619937 -520.77254,59.886085 L -520.67473,54.915445 L -518.24648,54.915445 L -515.81827,54.915445 L -515.81827,60.78243 L -515.81827,66.649418 L -518.22585,66.649418 C -520.60628,66.649418 -520.63477,66.63931 -520.75191,65.753073 z M -515.04523,65.264154 C -514.93786,64.502261 -514.69718,62.192136 -514.51035,60.130543 C -514.00432,54.546747 -514.18884,54.915445 -511.90072,54.915445 L -509.95125,54.915445 L -509.95125,60.78243 L -509.95125,66.649418 L -512.59582,66.649418 L -515.24037,66.649418 L -515.04523,65.264154 z M -509.29936,60.768721 L -509.29936,54.888023 L -506.7733,54.983222 L -504.24724,55.078417 L -504.15049,60.863916 L -504.05375,66.649418 L -506.67656,66.649418 L -509.29936,66.649418 L -509.29936,60.768721 z M -503.63433,65.427126 C -503.53459,64.754867 -503.29545,62.51808 -503.10285,60.456486 C -502.54874,54.525457 -502.73381,54.915445 -500.473,54.915445 L -498.54322,54.915445 L -498.54322,60.78243 L -498.54322,66.649418 L -501.17942,66.649418 L -503.81562,66.649418 L -503.63433,65.427126 z M -497.89133,60.78243 L -497.89133,54.888023 L -495.39128,54.983222 L -492.89123,55.078417 L -492.86522,60.78243 L -492.83921,66.486446 L -495.36527,66.581641 L -497.89133,66.67684 L -497.89133,60.78243 z M -492.22451,65.427126 C -492.1238,64.754867 -491.88931,62.738091 -491.70343,60.945402 C -491.51751,59.152712 -491.28469,57.062599 -491.18599,56.300705 L -491.00659,54.915445 L -489.07091,54.915445 L -487.1352,54.915445 L -487.1352,60.78243 L -487.1352,66.649418 L -489.7714,66.649418 L -492.40759,66.649418 L -492.22451,65.427126 z M -486.48331,60.78243 L -486.48331,54.888023 L -483.95725,54.983222 L -481.43118,55.078417 L -481.43118,60.78243 L -481.43118,66.486446 L -483.95725,66.581641 L -486.48331,66.67684 L -486.48331,60.78243 z M -578.35394,64.775239 C -578.5208,64.461518 -579.02209,63.30522 -579.46794,62.205685 L -580.27855,60.206536 L -577.51392,59.005803 C -575.99337,58.345395 -574.71754,57.851607 -574.67875,57.908487 C -574.42477,58.280911 -572.51528,63.153128 -572.59568,63.22362 C -572.79639,63.399607 -577.57955,65.34564 -577.8114,65.34564 C -577.94293,65.34564 -578.18708,65.08896 -578.35394,64.775239 z M -524.09951,60.474068 C -525.46069,57.794704 -526.5744,55.44791 -526.5744,55.25897 C -526.5744,55.046859 -525.57689,54.915445 -523.96686,54.915445 L -521.35931,54.915445 L -521.35931,60.130543 C -521.35931,62.998846 -521.41899,65.34564 -521.49197,65.34564 C -521.56494,65.34564 -522.73834,63.153432 -524.09951,60.474068 z M -427.08009,64.302168 C -428.53246,63.69484 -429.44318,63.124546 -429.44318,62.822358 C -429.44318,62.328661 -427.88654,58.559752 -427.48585,58.08331 C -427.36809,57.943311 -426.11024,58.327478 -424.6906,58.937012 C -422.80622,59.746086 -422.13549,60.189558 -422.20589,60.57981 C -422.37715,61.528805 -424.19249,65.346533 -424.45891,65.317974 C -424.60086,65.302759 -425.78039,64.845646 -427.08009,64.302168 z M -585.85297,62.328814 C -586.46366,60.894512 -586.82516,59.631588 -586.66783,59.482013 C -586.07565,58.919014 -582.21306,57.490885 -581.97043,57.745232 C -581.62865,58.103525 -580.02916,62.096247 -580.02916,62.591133 C -580.02916,62.807032 -581.09255,63.41637 -582.39225,63.945224 L -584.75534,64.906773 L -585.85297,62.328814 z M -480.6012,64.530781 C -480.60586,63.278454 -479.66639,55.550204 -479.47109,55.234185 C -479.16923,54.745814 -475.7242,54.827724 -475.74089,55.322875 C -475.76534,56.047757 -480.59869,65.204637 -480.6012,64.530781 z M -572.18122,62.73432 C -572.60927,61.656633 -572.89459,60.709979 -572.81526,60.630648 C -572.58108,60.39647 -568.03236,58.500825 -567.70462,58.500825 C -567.53943,58.500825 -567.10454,59.222056 -566.7382,60.103561 L -566.07213,61.706297 L -568.64292,63.200025 C -570.05685,64.021576 -571.25628,64.693753 -571.30832,64.693753 C -571.36035,64.693753 -571.75316,63.812007 -572.18122,62.73432 z M -433.50372,63.249552 C -434.75107,62.475766 -435.82437,61.684358 -435.88888,61.490875 C -435.95338,61.297388 -435.71045,60.470632 -435.34905,59.653638 L -434.69198,58.168199 L -432.80095,59.015203 C -431.76087,59.481054 -430.57991,59.992287 -430.17655,60.151279 C -429.7732,60.310268 -429.44318,60.577604 -429.44318,60.74536 C -429.44318,61.277502 -430.82877,64.694565 -431.03665,64.675096 C -431.1462,64.664832 -432.2564,64.023339 -433.50372,63.249552 z M -420.0723,63.779393 C -421.28237,63.299089 -422.2732,62.758303 -422.27418,62.577646 C -422.27512,62.396988 -421.82174,61.120205 -421.26666,59.740352 L -420.25737,57.231529 L -418.41289,58.057952 C -417.39842,58.512484 -416.23839,59.014456 -415.83503,59.173448 C -415.43168,59.332437 -415.10166,59.544617 -415.10166,59.644955 C -415.10166,60.241099 -417.25312,64.690184 -417.5332,64.673215 C -417.71964,64.661918 -418.86223,64.2597 -420.0723,63.779393 z M -566.91824,58.42989 C -567.50544,56.945119 -567.98213,55.572994 -567.97756,55.380723 C -567.969,55.020917 -564.071,53.285724 -563.27126,53.285724 C -562.89541,53.285724 -562.43574,54.21128 -560.91264,58.034843 C -560.83621,58.226726 -561.50142,58.77981 -562.3909,59.263924 C -563.28037,59.748035 -564.056,60.276898 -564.11451,60.439179 C -564.17302,60.601456 -564.58758,60.82316 -565.03575,60.931852 C -565.8002,61.117252 -565.91665,60.962478 -566.91824,58.42989 z M -439.16996,59.72338 C -441.52222,58.20934 -441.53347,58.147779 -440.06314,54.836629 L -439.23208,52.965122 L -437.56765,53.621169 C -436.65224,53.981991 -435.49201,54.489877 -434.9894,54.749797 L -434.07552,55.222376 L -435.26323,58.16435 C -435.91648,59.782432 -436.59764,61.094518 -436.77691,61.080091 C -436.95618,61.065665 -438.03303,60.455143 -439.16996,59.72338 z M -573.4857,59.389507 C -573.63937,58.990366 -574.14969,57.797872 -574.61974,56.739517 C -575.0898,55.681165 -575.43033,54.771179 -575.37648,54.71733 C -575.12117,54.462022 -570.56097,52.634277 -570.18723,52.637458 C -569.85258,52.640307 -567.55279,57.499708 -567.76839,57.748413 C -567.79816,57.782761 -569.03387,58.329342 -570.51441,58.963039 L -573.2063,60.115217 L -573.4857,59.389507 z M -431.82602,58.878887 C -434.71574,57.568994 -434.66652,57.74296 -433.11519,54.321455 L -432.2137,52.333229 L -429.63337,53.46131 C -428.21418,54.081753 -426.99394,54.648491 -426.92171,54.720723 C -426.75884,54.883597 -428.77063,59.760043 -429.0659,59.918161 C -429.18376,59.981267 -430.42583,59.513597 -431.82602,58.878887 z M -581.19913,57.930423 C -581.51373,57.078896 -581.87459,56.235517 -582.00105,56.056248 C -582.12751,55.876979 -582.32902,55.410139 -582.44886,55.018825 C -582.63607,54.407478 -582.44672,54.20817 -581.10349,53.602707 C -580.2437,53.215157 -579.00554,52.703862 -578.35203,52.466491 L -577.16382,52.034912 L -576.13538,54.484932 C -575.56975,55.832442 -575.15742,57.086334 -575.2191,57.271359 C -575.33034,57.605109 -579.5167,59.428881 -580.24665,59.461602 C -580.45591,59.470979 -580.88453,58.781951 -581.19913,57.930423 z M -424.55402,58.439179 C -425.89854,57.878914 -427.05404,57.375909 -427.12181,57.321388 C -427.33299,57.15147 -425.13495,51.950216 -424.89421,52.050257 C -424.76895,52.102324 -423.54109,52.582171 -422.16564,53.116588 C -420.79022,53.651009 -419.66487,54.255426 -419.66487,54.459747 C -419.66487,54.99331 -421.67953,59.480676 -421.91352,59.468248 C -422.02128,59.462525 -423.20951,58.999443 -424.55402,58.439179 z M -587.87544,57.312301 C -589.26712,54.080762 -589.48152,53.522884 -589.48152,53.133221 C -589.48152,52.785889 -584.67511,51.464615 -584.40267,51.737055 C -584.15485,51.98488 -582.31076,56.323456 -582.31076,56.658692 C -582.31076,56.979434 -583.41224,57.496462 -586.62663,58.684536 C -587.07273,58.849421 -587.33989,58.55586 -587.87544,57.312301 z M -417.61302,57.812715 L -419.96141,56.820667 L -419.28772,55.134684 C -418.91719,54.207388 -418.46944,53.04534 -418.29271,52.552351 C -418.11595,52.059361 -417.758,51.656006 -417.49718,51.656006 C -416.27744,51.656006 -412.49411,52.728963 -412.49411,53.07489 C -412.49411,53.716462 -414.64228,58.620192 -414.96529,58.71599 C -415.12992,58.764816 -416.32141,58.358342 -417.61302,57.812715 z M -557.70201,58.188919 C -558.60655,58.011606 -558.48441,57.918259 -556.0723,56.943505 C -554.63814,56.363951 -553.29575,55.890561 -553.08921,55.891522 C -552.75119,55.8931 -551.998,57.51125 -551.998,58.235852 C -551.998,58.543895 -556.06174,58.51046 -557.70201,58.188919 z M -554.11664,50.604834 C -555.90932,46.268171 -557.63241,42.085089 -557.94571,41.309099 L -558.51534,39.89821 L -557.02234,39.258236 C -556.20119,38.906246 -555.48809,38.618259 -555.43767,38.618259 C -555.13119,38.618259 -554.22861,41.697722 -554.50781,41.790791 C -554.68999,41.851518 -555.09115,42.085542 -555.39927,42.310844 C -555.92193,42.693026 -555.899,42.867751 -555.0572,44.917588 C -554.36385,46.605937 -554.03727,47.065856 -553.64686,46.903794 C -552.25488,46.325967 -552.10559,46.391091 -551.56254,47.81303 C -550.87253,49.61981 -550.86873,49.591668 -551.83503,49.83419 C -552.2832,49.946676 -552.65031,50.219256 -552.65082,50.439927 C -552.65276,51.26887 -550.89613,54.937727 -550.55795,54.811052 C -548.89711,54.188933 -548.84801,54.208861 -548.2621,55.743052 C -547.94837,56.564534 -547.74389,57.285668 -547.8077,57.34557 C -547.99095,57.517619 -550.42538,58.501437 -550.65254,58.495251 C -550.7651,58.492187 -552.32395,54.941501 -554.11664,50.604834 z M -453.23706,57.953722 C -453.8645,57.682064 -454.41603,57.42364 -454.46264,57.379445 C -454.50928,57.33525 -454.29436,56.616238 -453.98504,55.781637 C -453.51007,54.500157 -453.31949,54.297071 -452.75946,54.475688 C -451.4504,54.893167 -451.23235,54.722014 -450.29461,52.541252 L -449.3438,50.330031 L -450.23111,49.949189 C -450.71915,49.739728 -451.1566,49.547669 -451.20321,49.522395 C -451.24985,49.497122 -451.03486,48.793449 -450.72547,47.958674 C -450.18884,46.510751 -449.59904,46.060936 -449.16277,46.766852 C -448.5675,47.730031 -447.79993,46.671282 -446.17236,42.642016 C -446.08602,42.42822 -446.45277,42.170548 -447.02112,42.045718 C -447.57158,41.924816 -448.02196,41.767183 -448.02196,41.69542 C -448.02196,41.530301 -446.9706,38.822609 -446.84374,38.661009 C -446.71627,38.498644 -443.78747,39.713885 -443.7859,39.929781 C -443.78525,40.023675 -445.33733,43.837219 -447.23497,48.404317 C -449.13262,52.971416 -450.83372,57.11149 -451.0152,57.60448 C -451.3871,58.614748 -451.62423,58.65202 -453.23706,57.953722 z M -450.30357,58.074207 C -450.30357,57.839567 -450.11257,57.386378 -449.87913,57.067123 C -449.47443,56.513664 -449.32655,56.522106 -446.70118,57.248562 L -443.94767,58.010469 L -445.57739,58.227091 C -448.41906,58.60481 -450.30357,58.543852 -450.30357,58.074207 z M -561.05584,55.367428 C -561.62629,54.000766 -562.0229,52.769133 -561.9372,52.630463 C -561.76879,52.357981 -556.09917,50.026288 -555.60503,50.026288 C -555.27852,50.026288 -553.62772,53.431665 -553.62772,54.105214 C -553.62772,54.490362 -558.13713,57.255088 -559.43955,57.668462 C -559.9092,57.817523 -560.21469,57.38261 -561.05584,55.367428 z M -445.87373,56.527712 C -447.47086,55.822921 -448.83614,55.187732 -448.90772,55.116184 C -449.02085,55.003042 -447.4706,51.022091 -447.20101,50.733488 C -447.04599,50.567556 -440.72409,52.326974 -440.41796,52.621249 C -440.06206,52.963333 -442.10482,57.854795 -442.59282,57.829045 C -442.80018,57.818103 -444.27658,57.232503 -445.87373,56.527712 z M -569.55576,51.900463 C -570.1593,50.421494 -570.71808,49.045993 -570.79752,48.84379 C -570.93303,48.498835 -567.06286,47.418739 -565.69131,47.418739 C -565.28023,47.418739 -564.8741,48.101353 -564.2229,49.886852 C -563.72082,51.263446 -563.44925,52.467227 -563.60884,52.608811 C -563.84282,52.816404 -568.11413,54.589501 -568.38024,54.589501 C -568.42325,54.589501 -568.95223,53.379433 -569.55576,51.900463 z M -436.53245,53.523444 C -437.83215,52.966856 -438.89554,52.387198 -438.89554,52.235315 C -438.89554,52.083432 -438.43365,50.884999 -437.86908,49.572131 L -436.84265,47.185099 L -434.25926,47.76097 C -432.83837,48.077699 -431.60683,48.405869 -431.52247,48.490239 C -431.31915,48.69355 -433.6882,54.597305 -433.95909,54.562461 C -434.07474,54.547592 -435.23275,54.080032 -436.53245,53.523444 z M -576.5289,52.194996 C -576.98337,51.09184 -577.31465,50.145978 -577.26507,50.09308 C -577.16232,49.983456 -571.9573,48.721868 -571.61546,48.723736 C -571.40046,48.724909 -570.25085,51.25707 -570.25085,51.729447 C -570.25085,52.044612 -571.07588,52.459238 -573.57402,53.39954 L -575.70259,54.200732 L -576.5289,52.194996 z M -429.11724,53.082886 C -430.46175,52.488534 -431.69193,51.954303 -431.85096,51.895708 C -432.33404,51.71774 -430.83405,48.722513 -430.26185,48.722513 C -429.50413,48.722513 -425.41393,49.750155 -425.11471,50.015708 C -424.97492,50.139775 -425.26827,51.123789 -425.7666,52.202408 L -426.67266,54.163529 L -429.11724,53.082886 z M -527.22629,51.32811 L -527.22629,48.718612 L -501.23226,48.802047 L -475.23825,48.885485 L -475.14308,51.411548 L -475.04787,53.937611 L -501.13708,53.937611 L -527.22629,53.937611 L -527.22629,51.32811 z M -583.2636,53.006488 C -583.95485,51.714874 -583.69624,51.483337 -580.76506,50.769491 C -579.19786,50.387818 -577.89601,50.101128 -577.87206,50.132399 C -577.84812,50.163673 -577.73472,50.495223 -577.62007,50.869178 C -577.41219,51.547196 -577.93902,51.834923 -582.36725,53.461847 C -582.72014,53.591495 -583.03653,53.430762 -583.2636,53.006488 z M -551.12243,52.175113 L -551.61191,50.738563 L -549.35751,49.730536 C -548.11759,49.176126 -546.97365,48.722513 -546.81542,48.722513 C -546.5453,48.722513 -545.47913,51.027205 -545.47913,51.611107 C -545.47913,51.886741 -549.60494,53.611667 -550.26423,53.611667 C -550.46702,53.611667 -550.85321,52.96522 -551.12243,52.175113 z M -454.54132,52.840592 C -457.20067,51.808906 -457.18528,51.826869 -456.60963,50.426599 C -456.33489,49.758255 -455.99464,49.089712 -455.85354,48.940944 C -455.61655,48.691089 -451.44975,50.1335 -450.85722,50.670502 C -450.42202,51.064946 -451.61344,53.616224 -452.21314,53.573965 C -452.5074,53.553229 -453.55508,53.223211 -454.54132,52.840592 z M -422.104,52.597214 C -424.82743,51.445062 -425.002,51.295633 -424.47179,50.570519 C -424.08486,50.041372 -423.90152,50.0487 -421.29263,50.697575 C -419.76992,51.076296 -418.47658,51.433246 -418.41853,51.490792 C -418.24441,51.66345 -419.33652,53.613753 -419.59173,53.585911 C -419.72159,53.571746 -420.85212,53.126833 -422.104,52.597214 z M -562.69017,51.411548 C -563.62638,49.537262 -564.43782,47.016958 -564.18515,46.768231 C -563.80858,46.397528 -558.49203,44.159303 -557.98806,44.159303 C -557.66599,44.159303 -555.76194,48.383301 -555.9957,48.57918 C -556.31753,48.848852 -562.02017,51.981949 -562.18918,51.981949 C -562.30802,51.981949 -562.53347,51.725269 -562.69017,51.411548 z M -443.43522,50.66445 C -445.12534,49.950926 -446.55672,49.318579 -446.61607,49.259235 C -446.80763,49.067658 -444.76546,44.81119 -444.48199,44.81119 C -444.33124,44.81119 -443.78268,44.945756 -443.26293,45.110227 C -442.74318,45.274698 -441.2615,45.716834 -439.97028,46.092752 L -437.62264,46.776239 L -438.69039,49.278404 C -439.27765,50.654593 -439.89407,51.821334 -440.0602,51.871164 C -440.22634,51.920995 -441.74511,51.377973 -443.43522,50.66445 z M -545.34984,50.158924 C -545.61897,49.514798 -545.78965,48.839227 -545.72913,48.65766 C -545.66861,48.476094 -544.77806,47.985369 -543.75013,47.567164 C -540.55764,46.268321 -540.67165,46.266359 -540.10191,47.629944 C -539.82031,48.303898 -539.63158,49.061224 -539.68251,49.312892 C -539.77211,49.755647 -543.44996,51.330062 -544.39464,51.330062 C -544.65086,51.330062 -545.0807,50.803051 -545.34984,50.158924 z M -460.71541,50.490451 C -461.87059,50.04619 -462.86022,49.638206 -462.91459,49.583826 C -463.03444,49.463973 -462.0233,46.440908 -461.86335,46.440908 C -461.53754,46.440908 -456.94679,48.175296 -456.7242,48.382483 C -456.29764,48.77955 -457.47821,51.332054 -458.08013,51.31413 C -458.37439,51.305369 -459.56027,50.934712 -460.71541,50.490451 z M -539.41658,47.855321 C -539.70539,47.007678 -539.83088,46.218155 -539.69544,46.100822 C -539.47584,45.910595 -534.8544,44.159303 -534.572,44.159303 C -534.50948,44.159303 -534.22399,44.847024 -533.93759,45.687571 C -533.34347,47.431213 -533.31979,47.398442 -535.86379,48.353513 C -539.02077,49.538709 -538.83407,49.564889 -539.41658,47.855321 z M -466.11183,48.507909 C -467.36672,48.050926 -468.52597,47.552386 -468.68796,47.400043 C -468.94132,47.161768 -468.06531,44.159303 -467.74243,44.159303 C -467.68295,44.159303 -466.4413,44.614858 -464.98322,45.171645 C -463.39483,45.778187 -462.39529,46.333471 -462.48962,46.556905 C -462.57623,46.762012 -462.82649,47.479853 -463.04578,48.152112 C -463.26508,48.824371 -463.53131,49.366389 -463.63737,49.356594 C -463.74343,49.3468 -464.85695,48.964895 -466.11183,48.507909 z M -455.304,48.243191 C -456.889,47.637463 -458.26301,47.064634 -458.35741,46.970237 C -458.65092,46.676738 -457.35872,43.482442 -456.9993,43.613035 C -453.15789,45.008852 -450.95546,45.926504 -450.95546,46.131213 C -450.95546,46.450315 -452.20203,49.379863 -452.32915,49.359459 C -452.38032,49.351242 -453.719,48.848921 -455.304,48.243191 z M -550.72947,47.577953 C -551.36926,46.131584 -551.33437,45.463077 -550.61907,45.463077 C -550.41964,45.463077 -549.3649,45.112307 -548.27522,44.683587 C -544.84612,43.334457 -544.98397,43.328698 -544.53117,44.840013 C -544.3099,45.578556 -544.0588,46.365381 -543.97318,46.588515 C -543.87262,46.850564 -544.78108,47.357895 -546.53889,48.021334 C -548.03566,48.586253 -549.4445,49.048457 -549.66964,49.048457 C -549.89479,49.048457 -550.37171,48.38673 -550.72947,47.577953 z M -516.30255,45.21862 C -516.07602,42.655226 -515.58818,41.73629 -514.64578,42.097925 C -514.30367,42.229199 -514.18855,42.962269 -514.18855,45.009035 L -514.18855,47.744683 L -515.35715,47.744683 L -516.52576,47.744683 L -516.30255,45.21862 z M -513.53666,44.974162 L -513.53666,42.203638 L -510.60314,42.203638 L -507.66964,42.203638 L -507.66964,44.974162 L -507.66964,47.744683 L -510.60314,47.744683 L -513.53666,47.744683 L -513.53666,44.974162 z M -507.13829,47.011309 C -507.24637,46.607954 -507.33682,45.36122 -507.33927,44.240789 L -507.3437,42.203638 L -504.41021,42.203638 L -501.47671,42.203638 L -501.47671,44.974162 L -501.47671,47.744683 L -504.20923,47.744683 C -506.76743,47.744683 -506.95429,47.697897 -507.13829,47.011309 z M -500.82483,44.986851 L -500.82483,42.203638 L -497.87817,42.203638 L -494.93151,42.203638 L -495.02616,44.892676 L -495.12081,47.581711 L -497.97282,47.675886 L -500.82483,47.770064 L -500.82483,44.986851 z M -494.36352,44.973403 L -494.46893,42.202116 L -491.53543,42.202116 L -488.60194,42.202116 L -488.70739,44.973403 L -488.81283,47.744683 L -491.53543,47.744683 L -494.25807,47.744683 L -494.36352,44.973403 z M -488.11303,44.974162 L -488.11303,42.203638 L -487.1352,42.203638 C -486.2499,42.203638 -486.1571,42.303863 -486.15453,43.262958 C -486.153,43.845582 -486.05922,45.092317 -485.94615,46.033479 L -485.74061,47.744683 L -486.92682,47.744683 L -488.11303,47.744683 L -488.11303,44.974162 z M -532.91916,46.784867 C -533.02383,46.615506 -533.31393,45.897436 -533.56383,45.189158 L -534.01818,43.901377 L -531.5531,43.002311 C -529.79625,42.361551 -528.94245,42.195066 -528.58136,42.422838 C -528.03902,42.764939 -527.46889,44.414116 -527.68796,45.0072 C -527.76087,45.20464 -528.86861,45.75467 -530.1496,46.229488 C -532.81798,47.218564 -532.66952,47.188796 -532.91916,46.784867 z M -472.56617,46.071963 C -473.96483,45.524127 -475.06417,44.979667 -475.00912,44.862057 C -474.9541,44.744447 -474.69699,44.098189 -474.43777,43.42593 C -473.86923,41.951341 -473.51554,41.917404 -470.65428,43.062848 C -468.72535,43.835061 -468.52724,43.998623 -468.69777,44.678192 C -469.03649,46.027768 -469.51227,47.093082 -469.77065,47.080413 C -469.90953,47.073604 -471.16751,46.619802 -472.56617,46.071963 z M -543.65203,45.736244 C -544.2821,44.196536 -544.57234,43.181472 -544.38253,43.181472 C -544.29304,43.181472 -543.06802,42.756784 -541.66026,42.237729 L -539.10069,41.293985 L -538.41977,43.02395 L -537.73886,44.753919 L -540.21394,45.678901 C -541.57523,46.18764 -542.80552,46.653466 -542.9479,46.714075 C -543.0903,46.774681 -543.40715,46.334657 -543.65203,45.736244 z M -461.98519,45.781619 C -463.30093,45.275585 -464.42022,44.813557 -464.47253,44.75489 C -464.52485,44.69622 -464.27573,43.887766 -463.91892,42.958318 L -463.27019,41.268424 L -460.62516,42.243687 C -459.17038,42.780082 -457.93818,43.260849 -457.88701,43.312048 C -457.7284,43.470636 -459.17882,46.768817 -459.39195,46.734264 C -459.50251,46.716344 -460.66946,46.287653 -461.98519,45.781619 z M -553.91951,45.329916 C -554.11017,44.954983 -554.40553,44.26248 -554.57587,43.791026 C -554.95219,42.749486 -555.47022,43.003272 -544.66427,38.935144 C -540.36181,37.315394 -532.11286,34.208731 -526.33327,32.03145 C -520.55367,29.854166 -515.76849,28.135368 -515.69956,28.211893 C -515.63065,28.288418 -515.64695,29.19018 -515.73583,30.215807 C -515.86947,31.758039 -516.01742,32.117564 -516.59121,32.294392 C -516.97279,32.411989 -519.11844,33.212305 -521.35931,34.072877 C -523.60017,34.933447 -527.48705,36.396575 -529.9968,37.324269 C -532.50657,38.251963 -537.12682,39.966938 -540.26403,41.135329 C -553.82502,46.185841 -553.53031,46.095317 -553.91951,45.329916 z M -450.79248,45.322853 C -451.50956,45.090446 -455.9098,43.474763 -460.57079,41.732444 C -465.23179,39.990126 -472.19883,37.393372 -476.05311,35.961874 C -479.9074,34.530375 -483.81807,33.063899 -484.74345,32.703037 L -486.42604,32.046926 L -486.55231,30.198979 C -486.62177,29.182609 -486.64384,28.29909 -486.60133,28.235602 C -486.52467,28.121082 -451.88785,41.033853 -448.91831,42.284006 C -448.06678,42.642495 -447.37008,42.988109 -447.37008,43.05204 C -447.37008,43.115974 -447.60603,43.757946 -447.89439,44.478649 C -448.46662,45.908844 -448.73933,45.988287 -450.79248,45.322853 z M -441.50309,44.666488 C -444.117,43.515903 -444.20865,43.361191 -443.45338,41.374646 L -443.09357,40.428321 L -441.8909,41.733445 C -440.12155,43.653527 -438.47495,45.79243 -438.78668,45.765781 C -438.93619,45.752998 -440.15857,45.258316 -441.50309,44.666488 z M -561.3839,42.977806 C -560.43447,41.790179 -559.53517,40.800125 -559.38545,40.777687 C -559.23572,40.755249 -558.92205,41.191547 -558.6884,41.747239 L -558.26358,42.757586 L -560.46636,43.947361 C -561.67789,44.601736 -562.76836,45.137134 -562.88963,45.137134 C -563.0109,45.137134 -562.33332,44.165437 -561.3839,42.977806 z M -527.35005,43.510343 C -527.6405,42.784398 -527.87818,42.063733 -527.87818,41.908861 C -527.87818,41.616298 -523.59622,39.922033 -522.85682,39.922033 C -522.41826,39.922033 -521.2684,42.444752 -521.52081,42.853172 C -521.60024,42.981679 -522.51308,43.387847 -523.54939,43.755765 C -526.95432,44.964609 -526.76322,44.976949 -527.35005,43.510343 z M -478.47233,43.888952 C -479.71326,43.404261 -480.78014,42.853019 -480.84315,42.663968 C -481.01489,42.148769 -480.0085,39.922033 -479.60394,39.922033 C -479.03501,39.922033 -474.4234,41.618312 -474.4234,41.827577 C -474.4234,42.468963 -475.55171,44.807696 -475.85295,44.790695 C -476.05269,44.779424 -477.2314,44.37364 -478.47233,43.888952 z M -537.78025,43.184399 C -538.07071,42.458454 -538.30836,41.664452 -538.30836,41.419946 C -538.30836,41.031444 -534.27799,39.270146 -533.38898,39.270146 C -533.09812,39.270146 -531.65468,42.20031 -531.86279,42.368285 C -532.07807,42.542046 -535.92922,44.135235 -536.55796,44.310635 C -537.1357,44.471811 -537.34071,44.28292 -537.78025,43.184399 z M -467.79745,43.568299 C -469.08304,43.084924 -470.22127,42.603095 -470.32681,42.497561 C -470.62821,42.196154 -469.43786,39.270146 -469.01384,39.270146 C -468.63412,39.270146 -464.25813,40.853544 -464.04147,41.069332 C -463.85784,41.252258 -465.00082,44.487219 -465.24169,44.466198 C -465.36174,44.455723 -466.51183,44.05167 -467.79745,43.568299 z M -521.03535,42.122152 C -521.03646,41.898066 -521.26149,41.284947 -521.53541,40.759666 C -522.16162,39.558837 -521.91119,39.298946 -519.2072,38.343371 C -516.56461,37.409497 -516.46618,37.42833 -516.49303,38.862716 C -516.52866,40.762104 -516.87191,41.258082 -518.60691,41.917007 C -520.49585,42.634386 -521.03261,42.679731 -521.03535,42.122152 z M -483.87576,41.884021 C -485.27321,41.333362 -485.35629,41.226805 -485.63403,39.628941 C -485.79436,38.706531 -485.83455,37.860834 -485.72334,37.749619 C -485.36698,37.393288 -480.61632,39.303024 -480.61632,39.802597 C -480.61632,40.6745 -481.55912,42.529722 -481.98496,42.495785 C -482.21821,42.477196 -483.06905,42.201904 -483.87576,41.884021 z M -531.95948,40.552806 C -532.26105,39.644847 -532.44562,38.839796 -532.36963,38.763799 C -532.1449,38.539074 -527.75181,36.988541 -527.33982,36.988541 C -526.87717,36.988541 -525.82128,39.954116 -526.16515,40.28769 C -526.43738,40.551772 -530.73533,42.203638 -531.15022,42.203638 C -531.29374,42.203638 -531.6579,41.460764 -531.95948,40.552806 z M -474.01528,41.277306 C -475.31459,40.800809 -476.37798,40.230574 -476.37837,40.010116 C -476.37951,39.34597 -475.35041,36.988541 -475.05931,36.988541 C -474.77496,36.988541 -470.10044,38.625674 -469.91755,38.789314 C -469.68453,38.9978 -471.01399,42.201555 -471.32194,42.173651 C -471.50395,42.157159 -472.71597,41.753803 -474.01528,41.277306 z M -515.81827,40.621733 C -515.81827,40.110223 -515.724,38.790151 -515.60885,37.68824 L -515.39943,35.684766 L -513.16427,35.684766 L -510.92908,35.684766 L -510.92908,38.618259 L -510.92908,41.551751 L -513.37369,41.551751 L -515.81827,41.551751 L -515.81827,40.621733 z M -510.30943,41.144321 C -510.34026,40.754343 -510.33159,37.959595 -510.29473,36.418139 C -510.27797,35.717031 -510.1564,35.684766 -507.53151,35.684766 L -504.78579,35.684766 L -504.6795,38.299903 C -504.62103,39.73823 -504.62207,41.058302 -504.68185,41.233395 C -504.85078,41.728429 -510.27002,41.64265 -510.30943,41.144321 z M -504.08426,38.618259 L -504.08426,35.684766 L -501.15077,35.684766 L -498.21728,35.684766 L -498.21728,38.618259 L -498.21728,41.551751 L -501.15077,41.551751 L -504.08426,41.551751 L -504.08426,38.618259 z M -497.56539,38.60557 L -497.56539,35.659385 L -494.71338,35.753563 L -491.86138,35.847738 L -491.76721,38.699744 L -491.67305,41.551751 L -494.61922,41.551751 L -497.56539,41.551751 L -497.56539,38.60557 z M -491.30369,38.699744 L -491.20949,35.847738 L -489.05781,35.752465 L -486.90609,35.657188 L -486.69703,37.871098 C -486.3205,41.858213 -486.1337,41.551751 -488.9406,41.551751 L -491.39785,41.551751 L -491.30369,38.699744 z M -525.73712,38.862716 C -526.72639,36.443814 -526.80263,36.583455 -523.94026,35.571136 C -522.49633,35.06047 -521.22039,34.737193 -521.10484,34.852749 C -520.98926,34.968303 -520.64376,35.724023 -520.33702,36.532125 L -519.77926,38.001404 L -520.65077,38.337432 C -523.9973,39.627781 -524.81209,39.921723 -525.0428,39.92187 C -525.18641,39.921958 -525.49886,39.44534 -525.73712,38.862716 z M -479.96444,39.056382 C -481.12969,38.590368 -482.20683,38.096716 -482.3581,37.959377 C -482.63998,37.703446 -481.47479,34.706935 -481.09338,34.706935 C -480.97708,34.706935 -479.78184,35.097458 -478.43736,35.574763 C -475.77046,36.521535 -475.74092,36.579302 -476.67322,39.025688 C -477.09046,40.120575 -477.29861,40.122514 -479.96444,39.056382 z M -519.89957,35.989595 C -520.20113,35.081637 -520.39627,34.293769 -520.33317,34.238779 C -520.19057,34.114451 -516.32081,32.751274 -516.11047,32.751274 C -515.91869,32.751274 -516.27217,36.581036 -516.48055,36.760419 C -516.68413,36.935686 -518.78201,37.640428 -519.10013,37.640428 C -519.23823,37.640428 -519.59797,36.897553 -519.89957,35.989595 z M -484.74433,37.24202 C -485.35098,37.046858 -485.85264,36.624224 -485.96219,36.215979 C -486.17647,35.41744 -486.2236,32.751274 -486.0234,32.751274 C -485.86415,32.751274 -482.13428,34.134767 -481.96837,34.255376 C -481.69376,34.455036 -482.98792,37.637145 -483.33156,37.607152 C -483.54124,37.58885 -484.177,37.424542 -484.74433,37.24202 z M -515.16354,34.111557 C -515.16198,33.453037 -515.0682,32.144204 -514.95517,31.203038 L -514.74963,29.491834 L -511.20965,29.491834 L -507.66964,29.491834 L -507.66964,32.256149 C -507.66964,35.491407 -507.38676,35.298963 -512.15137,35.305032 L -515.16638,35.308872 L -515.16354,34.111557 z M -507.21388,34.901097 C -507.30214,34.671121 -507.33076,33.396623 -507.27753,32.068885 L -507.18073,29.654806 L -504.32872,29.560631 L -501.47671,29.466453 L -501.47671,32.249669 C -501.47671,34.246996 -501.59177,35.039202 -501.88414,35.055275 C -506.48549,35.308207 -507.06407,35.29147 -507.21388,34.901097 z M -500.26675,35.11739 C -500.77988,34.996702 -500.83826,34.646121 -500.75566,32.180993 L -500.66186,29.381643 L -499.43957,29.409576 C -498.76731,29.424941 -497.4782,29.449732 -496.57488,29.464674 L -494.93248,29.491834 L -495.02665,32.343844 L -495.12081,35.195851 L -497.40242,35.225147 C -498.6573,35.241258 -499.94625,35.192767 -500.26675,35.11739 z M -494.17,35.06004 C -494.24478,34.985347 -494.30596,33.701944 -494.30596,32.208033 L -494.30596,29.491834 L -490.91617,29.491834 L -487.52639,29.491834 L -487.23761,32.180872 C -487.07878,33.659842 -487.00306,34.943244 -487.06939,35.032879 C -487.21417,35.228589 -493.97538,35.254452 -494.17,35.06004 z M -514.68362,28.106574 C -514.62111,27.703219 -514.47248,26.383147 -514.35331,25.173082 L -514.13666,22.972962 L -512.53288,22.972962 L -510.92908,22.972962 L -510.92908,25.906455 L -510.92908,28.839947 L -512.86316,28.839947 C -514.68525,28.839947 -514.79066,28.79748 -514.68362,28.106574 z M -510.30597,28.351032 C -510.32178,28.082128 -510.33472,26.982069 -510.33472,25.906455 C -510.33472,24.830841 -510.32178,23.730781 -510.30597,23.461878 C -510.2828,23.067887 -509.73929,22.972962 -507.50667,22.972962 L -504.73615,22.972962 L -504.73615,25.906455 L -504.73615,28.839947 L -507.50667,28.839947 C -509.73929,28.839947 -510.2828,28.745023 -510.30597,28.351032 z M -504.08426,25.906455 L -504.08426,22.972962 L -501.15077,22.972962 L -498.21728,22.972962 L -498.21728,25.906455 L -498.21728,28.839947 L -501.15077,28.839947 L -504.08426,28.839947 L -504.08426,25.906455 z M -497.56539,25.906455 L -497.56539,22.947581 L -494.71338,23.041759 L -491.86138,23.135934 L -491.86138,25.906455 L -491.86138,28.676975 L -494.71338,28.77115 L -497.56539,28.865329 L -497.56539,25.906455 z M -491.37246,25.906455 L -491.37246,22.972962 L -489.74274,22.972962 C -488.66863,22.972962 -488.10514,23.111863 -488.08985,23.380392 C -488.07708,23.604478 -487.96316,24.92455 -487.83669,26.313884 L -487.60674,28.839947 L -489.48958,28.839947 L -491.37246,28.839947 L -491.37246,25.906455 z M -513.60035,22.393285 C -514.06065,22.299028 -514.1258,21.997703 -513.99034,20.589396 C -513.58034,16.32633 -513.81557,16.557982 -510.06608,16.724725 L -507.64503,16.832394 L -507.73884,19.643377 L -507.83261,22.454367 L -510.44016,22.480403 C -511.87432,22.494725 -513.29641,22.45552 -513.60035,22.393285 z M -507.1656,22.08004 C -507.26355,21.824748 -507.3437,20.59642 -507.3437,19.350419 C -507.3437,16.65143 -507.22493,16.563829 -503.78358,16.725292 L -501.47671,16.833525 L -501.47671,19.577298 C -501.47671,21.086378 -501.58672,22.343797 -501.72117,22.371567 C -501.85562,22.399338 -503.09555,22.449543 -504.47657,22.483134 C -506.39028,22.529682 -507.02985,22.433813 -507.1656,22.08004 z M -500.67496,22.362301 C -500.75739,22.279869 -500.82483,20.99014 -500.82483,19.496226 L -500.82483,16.780031 L -497.87866,16.780031 L -494.93248,16.780031 L -495.02665,19.632037 L -495.12081,22.484047 L -497.82295,22.498112 C -499.30912,22.505846 -500.59253,22.444732 -500.67496,22.362301 z M -494.30494,19.632037 L -494.30596,16.780031 L -493.08367,16.749803 C -491.28224,16.705253 -488.94601,16.81978 -488.80432,16.959583 C -488.60031,17.160883 -488.16544,22.144952 -488.33649,22.321075 C -488.42359,22.41071 -489.80187,22.484047 -491.39939,22.484047 L -494.30393,22.484047 L -494.30494,19.632037 z M -513.34869,13.765053 C -513.09638,10.667434 -513.07209,10.6119 -512.00564,10.692897 C -511.09293,10.762216 -511.09199,10.764843 -510.9974,13.445214 L -510.90274,16.128144 L -512.22197,16.128144 L -513.54119,16.128144 L -513.34869,13.765053 z M -510.3165,15.557742 C -510.39593,14.405496 -510.21171,11.070777 -510.05464,10.816599 C -509.96556,10.6725 -508.73248,10.582565 -507.31443,10.616744 L -504.73615,10.678885 L -504.73615,13.403513 L -504.73615,16.128144 L -507.50667,16.128144 C -509.91301,16.128144 -510.28237,16.05316 -510.3165,15.557742 z M -504.01598,13.439109 L -503.92129,10.750074 L -501.15077,10.750074 L -498.38025,10.750074 L -498.2856,13.439109 L -498.19094,16.128144 L -501.15077,16.128144 L -504.11063,16.128144 L -504.01598,13.439109 z M -497.49711,13.439109 L -497.40242,10.750074 L -494.6319,10.750074 L -491.86138,10.750074 L -491.76672,13.439109 L -491.67207,16.128144 L -494.6319,16.128144 L -497.59176,16.128144 L -497.49711,13.439109 z M -491.37246,13.526804 C -491.37246,11.004137 -491.3471,10.919099 -490.53374,10.71496 C -490.07247,10.599182 -489.5772,10.633054 -489.4332,10.790237 C -489.28919,10.947417 -489.07381,12.212746 -488.95455,13.602081 L -488.73773,16.128144 L -490.0551,16.128144 L -491.37246,16.128144 L -491.37246,13.526804 z M -514.63346,7.0092065 C -515.46436,5.5791746 -516.14421,4.3324403 -516.14421,4.2386859 C -516.14421,4.1449347 -514.98245,4.0682272 -513.56254,4.0682272 L -510.9809,4.0682272 L -510.77383,5.0108854 C -510.65998,5.5293443 -510.60007,6.7760786 -510.64075,7.781406 L -510.71471,9.6092716 L -511.91871,9.6092716 C -513.07988,9.6092716 -513.17646,9.5167558 -514.63346,7.0092065 z M -510.04078,8.2240081 C -509.94486,7.4621149 -509.77182,6.2520493 -509.65627,5.5349734 L -509.44617,4.231199 L -506.92819,4.1360039 L -504.41021,4.0408055 L -504.41021,6.8250386 L -504.41021,9.6092716 L -507.3127,9.6092716 L -510.21516,9.6092716 L -510.04078,8.2240081 z M -503.75832,8.9025933 C -503.75832,8.5139251 -503.59662,7.2671908 -503.39893,6.1320727 L -503.03952,4.0682272 L -500.65107,4.0682272 C -497.90682,4.0682272 -497.9708,3.9781233 -498.16363,7.5721209 L -498.27292,9.6092716 L -501.01563,9.6092716 C -503.61191,9.6092716 -503.75832,9.5715469 -503.75832,8.9025933 z M -497.36347,8.2240081 C -497.24815,7.4621149 -497.05943,6.2520493 -496.94408,5.5349734 L -496.73437,4.231199 L -494.21639,4.1360039 L -491.69841,4.0408055 L -491.69841,6.8250386 L -491.69841,9.6092716 L -494.63578,9.6092716 L -497.57312,9.6092716 L -497.36347,8.2240081 z M -490.86406,7.773453 C -490.41748,4.1991359 -490.4506,4.2438814 -488.17232,4.134159 C -487.06411,4.080789 -486.15737,4.1362711 -486.15737,4.257457 C -486.15737,4.3786395 -486.63406,5.3023539 -487.21668,6.3101552 C -487.79931,7.3179566 -488.42603,8.4358714 -488.60937,8.7944094 C -488.81889,9.2040585 -489.3434,9.4849828 -490.02094,9.5503964 L -491.09909,9.654493 L -490.86406,7.773453 z M -516.47015,0.48603854 L -516.47015,-2.1247012 L -513.87815,-2.1247012 L -511.28615,-2.1247012 L -511.18912,-0.087553743 L -511.09205,1.9495938 L -508.15856,2.045444 C -503.80444,2.1877151 -503.75832,2.1644493 -503.75832,-0.17524887 L -503.75832,-2.1247012 L -501.16635,-2.1247012 L -498.57435,-2.1247012 L -498.47732,-0.087553743 L -498.38025,1.9495938 L -495.44676,2.045444 C -491.08883,2.187839 -491.04652,2.1663593 -491.04652,-0.18843003 L -491.04652,-2.1510636 L -488.35748,-2.0563965 L -485.66845,-1.9617294 L -485.66845,0.48284756 L -485.66845,2.9274246 L -501.06928,3.0121014 L -516.47015,3.0967783 L -516.47015,0.48603854 z"
       id="path4269"
       style="fill:#ffffff" />
    <path
       d="M -501.58538,-2.9938885 C -501.70487,-3.113399 -501.80266,-6.3402406 -501.80266,-10.164648 L -501.80266,-17.118113 L -508.20057,-17.118113 L -514.59845,-17.118113 L -514.38226,-15.488395 C -514.26335,-14.59205 -514.2478,-13.858677 -514.34767,-13.858677 C -514.69471,-13.858677 -521.68522,-17.272053 -521.68013,-17.439028 C -521.67557,-17.588326 -515.28479,-21.019981 -514.47821,-21.306228 C -514.27675,-21.377724 -514.23949,-20.801993 -514.37799,-19.757996 L -514.59845,-18.095944 L -508.2169,-18.095944 L -501.83535,-18.095944 L -501.73753,-22.940571 C -501.68372,-25.605118 -501.68832,-28.031432 -501.74774,-28.332385 C -501.83903,-28.794746 -502.21798,-28.86481 -504.19231,-28.784345 L -506.52884,-28.689114 L -506.62819,-27.140882 C -506.69794,-26.053886 -506.86789,-25.59265 -507.19859,-25.59265 C -507.58082,-25.59265 -507.66964,-26.268735 -507.66964,-29.178029 C -507.66964,-32.147738 -507.58571,-32.76341 -507.18073,-32.76341 C -506.81857,-32.76341 -506.69181,-32.383142 -506.69181,-31.296664 L -506.69181,-29.829917 L -504.24724,-29.829917 L -501.80266,-29.829917 L -501.80266,-32.907641 L -501.80266,-35.985365 L -503.16259,-36.085592 C -503.91057,-36.140717 -504.58283,-36.369162 -504.65652,-36.593248 C -504.75646,-36.897215 -504.03866,-37.011025 -501.82984,-37.041421 C -500.20146,-37.06383 -498.61249,-37.100498 -498.29876,-37.122907 C -497.98504,-37.145316 -497.72836,-36.943638 -497.72836,-36.674734 C -497.72836,-36.321416 -498.16542,-36.157954 -499.3042,-36.085347 C -500.5586,-36.00537 -500.84116,-35.883584 -500.68946,-35.488288 C -500.58464,-35.215164 -500.49888,-33.830298 -500.49888,-32.410809 L -500.49888,-29.829917 L -497.9092,-29.829917 L -495.31951,-29.829917 L -495.22016,-31.378149 C -495.16553,-32.229677 -494.97414,-32.926382 -494.79487,-32.926382 C -494.60237,-32.926382 -494.43122,-31.425357 -494.37678,-29.259515 C -494.29989,-26.200108 -494.36443,-25.59265 -494.76635,-25.59265 C -495.1098,-25.59265 -495.27658,-26.037045 -495.34741,-27.140882 L -495.44676,-28.689114 L -497.72064,-28.787175 C -499.39129,-28.859219 -500.0837,-28.763214 -500.33083,-28.42527 C -500.58881,-28.072436 -500.70208,-21.78192 -500.51238,-18.340402 C -500.50495,-18.20595 -497.64349,-18.095944 -494.15354,-18.095944 L -487.8082,-18.095944 L -486.45472,-19.888634 L -485.10121,-21.681324 L -482.69581,-21.681324 C -481.37284,-21.681324 -480.29194,-21.571318 -480.29387,-21.436866 C -480.29576,-21.302414 -480.88089,-20.459035 -481.59415,-19.56269 C -482.30742,-18.666345 -482.89258,-17.803814 -482.89447,-17.645956 C -482.89636,-17.488098 -482.41364,-16.681388 -481.82173,-15.853266 C -481.22978,-15.025145 -480.63445,-14.164249 -480.49872,-13.940163 C -480.31,-13.628617 -480.82252,-13.532734 -482.67658,-13.532734 L -485.10121,-13.532734 L -486.45987,-15.332262 L -487.81854,-17.13179 L -494.20941,-17.043466 L -500.60028,-16.955142 L -500.52835,-10.436266 C -500.44999,-3.338978 -500.63412,-2.0426189 -501.58538,-2.9938885 z"
       id="path3465"
       style="fill:#000000" />
  </g>
</svg>
